<svg width="207" height="67" viewBox="0 0 207 67" fill="none" xmlns="http://www.w3.org/2000/svg">
<path d="M75.5915 25.6767C74.0551 25.6767 72.6723 25.3555 71.4432 24.713C70.2281 24.0565 69.2713 23.1486 68.5729 21.9894C67.8746 20.8301 67.5254 19.5172 67.5254 18.0506C67.5254 16.584 67.8746 15.2711 68.5729 14.1118C69.2713 12.9525 70.2281 12.0517 71.4432 11.4092C72.6723 10.7527 74.0551 10.4245 75.5915 10.4245C76.9323 10.4245 78.1405 10.6619 79.216 11.1368C80.2915 11.6117 81.1854 12.2961 81.8977 13.19L79.2579 15.5784C78.3081 14.4331 77.1558 13.8604 75.801 13.8604C75.0049 13.8604 74.2925 14.035 73.664 14.3842C73.0494 14.7334 72.5676 15.2292 72.2184 15.8717C71.8832 16.5002 71.7156 17.2265 71.7156 18.0506C71.7156 18.8747 71.8832 19.6079 72.2184 20.2504C72.5676 20.879 73.0494 21.3678 73.664 21.717C74.2925 22.0662 75.0049 22.2408 75.801 22.2408C77.1558 22.2408 78.3081 21.6681 79.2579 20.5228L81.8977 22.9112C81.1854 23.8051 80.2915 24.4895 79.216 24.9644C78.1405 25.4393 76.9323 25.6767 75.5915 25.6767Z" fill="white"/>
<path d="M95.4652 14.0071H90.9817V25.3834H86.8963V14.0071H82.3918V10.7178H95.4652V14.0071Z" fill="white"/>
<path d="M104.082 10.7178C105.409 10.7178 106.561 10.9413 107.539 11.3882C108.516 11.8212 109.271 12.4497 109.801 13.2738C110.332 14.0839 110.597 15.0406 110.597 16.1441C110.597 17.2475 110.332 18.2042 109.801 19.0143C109.271 19.8244 108.516 20.453 107.539 20.8999C106.561 21.3329 105.409 21.5494 104.082 21.5494H101.526V25.3834H97.3775V10.7178H104.082ZM103.83 18.2811C104.682 18.2811 105.325 18.0995 105.758 17.7363C106.191 17.3592 106.407 16.8285 106.407 16.1441C106.407 15.4597 106.191 14.9289 105.758 14.5518C105.325 14.1747 104.682 13.9861 103.83 13.9861H101.526V18.2811H103.83Z" fill="white"/>
<path d="M119.889 25.6767C118.338 25.6767 116.941 25.3485 115.698 24.692C114.469 24.0356 113.499 23.1277 112.786 21.9684C112.088 20.8091 111.739 19.5032 111.739 18.0506C111.739 16.598 112.088 15.2921 112.786 14.1328C113.499 12.9735 114.469 12.0656 115.698 11.4092C116.941 10.7527 118.338 10.4245 119.889 10.4245C121.439 10.4245 122.829 10.7527 124.058 11.4092C125.301 12.0656 126.272 12.9735 126.97 14.1328C127.682 15.2921 128.038 16.598 128.038 18.0506C128.038 19.5032 127.682 20.8091 126.97 21.9684C126.272 23.1277 125.301 24.0356 124.058 24.692C122.829 25.3485 121.439 25.6767 119.889 25.6767ZM119.889 22.2408C120.629 22.2408 121.299 22.0662 121.9 21.717C122.5 21.3678 122.975 20.879 123.324 20.2504C123.674 19.6079 123.848 18.8747 123.848 18.0506C123.848 17.2265 123.674 16.5002 123.324 15.8717C122.975 15.2292 122.5 14.7334 121.9 14.3842C121.299 14.035 120.629 13.8604 119.889 13.8604C119.148 13.8604 118.478 14.035 117.877 14.3842C117.277 14.7334 116.802 15.2292 116.453 15.8717C116.103 16.5002 115.929 17.2265 115.929 18.0506C115.929 18.8747 116.103 19.6079 116.453 20.2504C116.802 20.879 117.277 21.3678 117.877 21.717C118.478 22.0662 119.148 22.2408 119.889 22.2408Z" fill="white"/>
<path d="M130.256 10.7178H134.342V19.3286L140.397 10.7178H144.294V25.3834H140.208V16.7935L134.174 25.3834H130.256V10.7178ZM137.254 9.83785C135.774 9.83785 134.684 9.55152 133.986 8.97886C133.301 8.4062 132.959 7.5542 132.959 6.42285H135.746C135.76 6.91171 135.885 7.27485 136.123 7.5123C136.36 7.74974 136.737 7.86846 137.254 7.86846C137.771 7.86846 138.155 7.74974 138.406 7.5123C138.658 7.27485 138.79 6.91171 138.804 6.42285H141.591C141.591 7.5542 141.242 8.4062 140.543 8.97886C139.845 9.55152 138.749 9.83785 137.254 9.83785Z" fill="white"/>
<path d="M81.6672 46.3343L81.6463 38.5615L77.8751 44.8887H76.0315L72.2603 38.7291V46.3343H68.4472V31.6687H71.8622L77.0161 40.1328L82.0444 31.6687H85.4593L85.5013 46.3343H81.6672Z" fill="white"/>
<path d="M98.7399 43.485H92.5385L91.3862 46.3343H87.1541L93.6279 31.6687H97.7133L104.208 46.3343H99.8922L98.7399 43.485ZM97.5248 40.4261L95.6392 35.7331L93.7536 40.4261H97.5248Z" fill="white"/>
<path d="M112.828 46.6276C111.292 46.6276 109.909 46.3064 108.68 45.6639C107.465 45.0074 106.508 44.0995 105.81 42.9402C105.112 41.781 104.762 40.468 104.762 39.0015C104.762 37.5349 105.112 36.222 105.81 35.0627C106.508 33.9034 107.465 33.0025 108.68 32.3601C109.909 31.7036 111.292 31.3754 112.828 31.3754C114.169 31.3754 115.377 31.6128 116.453 32.0877C117.528 32.5626 118.422 33.247 119.135 34.1409L116.495 36.5293C115.545 35.384 114.393 34.8113 113.038 34.8113C112.242 34.8113 111.529 34.9859 110.901 35.3351C110.286 35.6843 109.805 36.1801 109.455 36.8226C109.12 37.4511 108.952 38.1774 108.952 39.0015C108.952 39.8256 109.12 40.5588 109.455 41.2013C109.805 41.8299 110.286 42.3187 110.901 42.6679C111.529 43.0171 112.242 43.1917 113.038 43.1917C114.393 43.1917 115.545 42.619 116.495 41.4737L119.135 43.8621C118.422 44.756 117.528 45.4404 116.453 45.9153C115.377 46.3902 114.169 46.6276 112.828 46.6276Z" fill="white"/>
<path d="M132.702 34.958H128.219V46.3343H124.133V34.958H119.629V31.6687H132.702V34.958Z" fill="white"/>
<path d="M146.389 43.1288V46.3343H134.614V31.6687H146.116V34.8742H138.721V37.3464H145.236V40.4471H138.721V43.1288H146.389Z" fill="white"/>
<path d="M155.456 31.6687C156.783 31.6687 157.936 31.8921 158.913 32.3391C159.891 32.7721 160.645 33.4006 161.176 34.2247C161.707 35.0348 161.972 35.9915 161.972 37.095C161.972 38.1984 161.707 39.1551 161.176 39.9652C160.645 40.7753 159.891 41.4039 158.913 41.8508C157.936 42.2838 156.783 42.5003 155.456 42.5003H152.9V46.3343H148.752V31.6687H155.456ZM155.205 39.2319C156.057 39.2319 156.7 39.0504 157.132 38.6872C157.565 38.3101 157.782 37.7793 157.782 37.095C157.782 36.4106 157.565 35.8798 157.132 35.5027C156.7 35.1256 156.057 34.937 155.205 34.937H152.9V39.2319H155.205Z" fill="white"/>
<path d="M26.6214 0.363281L51.4892 14.7207L41.4204 31.638L29.5978 12.2967H29.5849L16.285 6.33101L26.6214 0.363281Z" fill="white"/>
<path d="M14.0466 7.62332L0.955078 15.1817V44.8187L26.6214 59.6371L51.9243 45.0285L51.843 32.0529L43.9612 45.3273H38.5685L30.6868 32.6233V48.5941H19.5383V12.2967H19.5546L14.0466 7.62332Z" fill="white"/>
<path d="M19.5362 12.2801L8.32812 2.77344L10.8323 9.48224L19.5362 12.2801Z" fill="white"/>
<rect x="68" y="52" width="139" height="15" fill="white"/>
<path d="M75.2539 60.4778H74.4836V62.4178H73V57.3014H74.4836V59.289H75.2824L76.6709 57.3014H78.2495L76.4617 59.755L78.3732 62.4178H76.6233L75.2539 60.4778Z" fill="#3D3D3D"/>
<path d="M81.3403 62.4939C80.8014 62.4939 80.3164 62.383 79.8853 62.1611C79.4605 61.9328 79.1276 61.619 78.8867 61.2196C78.6458 60.8201 78.5253 60.3668 78.5253 59.8596C78.5253 59.3524 78.6458 58.8991 78.8867 58.4997C79.1276 58.1003 79.4605 57.7896 79.8853 57.5677C80.3164 57.3395 80.8014 57.2253 81.3403 57.2253C81.8792 57.2253 82.361 57.3395 82.7858 57.5677C83.2106 57.7896 83.5435 58.1003 83.7844 58.4997C84.0253 58.8991 84.1458 59.3524 84.1458 59.8596C84.1458 60.3668 84.0253 60.8201 83.7844 61.2196C83.5435 61.619 83.2106 61.9328 82.7858 62.1611C82.361 62.383 81.8792 62.4939 81.3403 62.4939ZM81.3403 61.2766C81.7207 61.2766 82.0314 61.1498 82.2723 60.8962C82.5195 60.6363 82.6432 60.2907 82.6432 59.8596C82.6432 59.4285 82.5195 59.0861 82.2723 58.8325C82.0314 58.5726 81.7207 58.4426 81.3403 58.4426C80.9599 58.4426 80.6461 58.5726 80.3988 58.8325C80.1515 59.0861 80.0279 59.4285 80.0279 59.8596C80.0279 60.2907 80.1515 60.6363 80.3988 60.8962C80.6461 61.1498 80.9599 61.2766 81.3403 61.2766Z" fill="#3D3D3D"/>
<path d="M90.1589 62.4178V59.3556L88.6278 61.9233H88.0001L86.5071 59.3461V62.4178H85.1661V57.3014H86.7163L88.352 60.259L90.0923 57.3014H91.4808L91.4998 62.4178H90.1589Z" fill="#3D3D3D"/>
<path d="M95.8785 57.6533C96.3667 57.6533 96.7947 57.7547 97.1624 57.9576C97.5301 58.1542 97.8122 58.4331 98.0088 58.7945C98.2117 59.1559 98.3131 59.5743 98.3131 60.0498C98.3131 60.538 98.1926 60.9723 97.9517 61.3527C97.7171 61.7268 97.3875 62.0184 96.9627 62.2276C96.5379 62.4305 96.056 62.5319 95.5171 62.5319C94.6232 62.5319 93.9195 62.2466 93.4059 61.676C92.8987 61.0991 92.6451 60.2559 92.6451 59.1464C92.6451 58.1193 92.867 57.3014 93.3108 56.6928C93.761 56.0778 94.4489 55.6752 95.3745 55.485L97.8091 55L98.0088 56.2743L95.8595 56.7023C95.2762 56.8164 94.8419 57.0066 94.5566 57.2729C94.2777 57.5392 94.1128 57.9164 94.0621 58.4046C94.284 58.1637 94.5503 57.9798 94.861 57.853C95.1716 57.7199 95.5108 57.6533 95.8785 57.6533ZM95.5267 61.3812C95.9071 61.3812 96.2114 61.2576 96.4396 61.0103C96.6742 60.7631 96.7915 60.4492 96.7915 60.0688C96.7915 59.6821 96.6742 59.3746 96.4396 59.1464C96.2114 58.9181 95.9071 58.804 95.5267 58.804C95.1399 58.804 94.8293 58.9181 94.5947 59.1464C94.3601 59.3746 94.2428 59.6821 94.2428 60.0688C94.2428 60.4556 94.3633 60.7726 94.6042 61.0198C94.8451 61.2608 95.1526 61.3812 95.5267 61.3812Z" fill="#3D3D3D"/>
<path d="M99.3197 57.3014H100.794V60.3446L103.285 57.3014H104.645V62.4178H103.171V59.3746L100.689 62.4178H99.3197V57.3014Z" fill="#3D3D3D"/>
<path d="M106.071 57.3014H107.546V59.2985H109.771V57.3014H111.254V62.4178H109.771V60.5063H107.546V62.4178H106.071V57.3014Z" fill="#3D3D3D"/>
<path d="M114.662 57.2253C115.455 57.2253 116.063 57.4155 116.488 57.7959C116.913 58.17 117.125 58.7374 117.125 59.4982V62.4178H115.737V61.7806C115.458 62.2562 114.938 62.4939 114.177 62.4939C113.784 62.4939 113.442 62.4273 113.15 62.2942C112.865 62.1611 112.646 61.9772 112.494 61.7426C112.342 61.508 112.266 61.2417 112.266 60.9438C112.266 60.4683 112.443 60.0942 112.798 59.8216C113.16 59.549 113.714 59.4127 114.463 59.4127H115.642C115.642 59.0893 115.544 58.8421 115.347 58.6709C115.15 58.4934 114.856 58.4046 114.463 58.4046C114.19 58.4046 113.92 58.449 113.654 58.5377C113.394 58.6202 113.172 58.7343 112.988 58.8801L112.456 57.8435C112.735 57.647 113.068 57.4948 113.454 57.387C113.848 57.2792 114.25 57.2253 114.662 57.2253ZM114.548 61.4953C114.802 61.4953 115.027 61.4383 115.223 61.3242C115.42 61.2037 115.559 61.0294 115.642 60.8011V60.2781H114.624C114.016 60.2781 113.711 60.4778 113.711 60.8772C113.711 61.0674 113.784 61.2196 113.93 61.3337C114.082 61.4415 114.288 61.4953 114.548 61.4953Z" fill="#3D3D3D"/>
<path d="M122.713 58.5187H120.982V62.4178H119.508V58.5187H117.777V57.3014H122.713V58.5187Z" fill="#3D3D3D"/>
<path d="M129.154 57.6533C129.643 57.6533 130.07 57.7547 130.438 57.9576C130.806 58.1542 131.088 58.4331 131.285 58.7945C131.487 59.1559 131.589 59.5743 131.589 60.0498C131.589 60.538 131.468 60.9723 131.228 61.3527C130.993 61.7268 130.663 62.0184 130.238 62.2276C129.814 62.4305 129.332 62.5319 128.793 62.5319C127.899 62.5319 127.195 62.2466 126.682 61.676C126.175 61.0991 125.921 60.2559 125.921 59.1464C125.921 58.1193 126.143 57.3014 126.587 56.6928C127.037 56.0778 127.725 55.6752 128.65 55.485L131.085 55L131.285 56.2743L129.135 56.7023C128.552 56.8164 128.118 57.0066 127.832 57.2729C127.553 57.5392 127.389 57.9164 127.338 58.4046C127.56 58.1637 127.826 57.9798 128.137 57.853C128.447 57.7199 128.787 57.6533 129.154 57.6533ZM128.802 61.3812C129.183 61.3812 129.487 61.2576 129.715 61.0103C129.95 60.7631 130.067 60.4492 130.067 60.0688C130.067 59.6821 129.95 59.3746 129.715 59.1464C129.487 58.9181 129.183 58.804 128.802 58.804C128.416 58.804 128.105 58.9181 127.87 59.1464C127.636 59.3746 127.519 59.6821 127.519 60.0688C127.519 60.4556 127.639 60.7726 127.88 61.0198C128.121 61.2608 128.428 61.3812 128.802 61.3812Z" fill="#3D3D3D"/>
<path d="M135.287 58.9372C135.953 58.9435 136.457 59.0925 136.799 59.3841C137.141 59.6758 137.313 60.0942 137.313 60.6394C137.313 61.21 137.119 61.6507 136.732 61.9613C136.346 62.272 135.797 62.4273 135.087 62.4273L132.596 62.4178V57.3014H134.07V58.9372H135.287ZM137.864 57.3014H139.338V62.4178H137.864V57.3014ZM134.954 61.3717C135.239 61.3781 135.458 61.3178 135.61 61.191C135.762 61.0642 135.838 60.874 135.838 60.6204C135.838 60.3732 135.762 60.1925 135.61 60.0784C135.464 59.9642 135.246 59.904 134.954 59.8977L134.07 59.8882V61.3717H134.954Z" fill="#3D3D3D"/>
<path d="M145.067 58.5187H143.336V62.4178H141.862V58.5187H140.131V57.3014H145.067V58.5187Z" fill="#3D3D3D"/>
<path d="M148.041 62.4939C147.502 62.4939 147.017 62.383 146.585 62.1611C146.161 61.9328 145.828 61.619 145.587 61.2196C145.346 60.8201 145.226 60.3668 145.226 59.8596C145.226 59.3524 145.346 58.8991 145.587 58.4997C145.828 58.1003 146.161 57.7896 146.585 57.5677C147.017 57.3395 147.502 57.2253 148.041 57.2253C148.579 57.2253 149.061 57.3395 149.486 57.5677C149.911 57.7896 150.244 58.1003 150.485 58.4997C150.726 58.8991 150.846 59.3524 150.846 59.8596C150.846 60.3668 150.726 60.8201 150.485 61.2196C150.244 61.619 149.911 61.9328 149.486 62.1611C149.061 62.383 148.579 62.4939 148.041 62.4939ZM148.041 61.2766C148.421 61.2766 148.732 61.1498 148.972 60.8962C149.22 60.6363 149.343 60.2907 149.343 59.8596C149.343 59.4285 149.22 59.0861 148.972 58.8325C148.732 58.5726 148.421 58.4426 148.041 58.4426C147.66 58.4426 147.346 58.5726 147.099 58.8325C146.852 59.0861 146.728 59.4285 146.728 59.8596C146.728 60.2907 146.852 60.6363 147.099 60.8962C147.346 61.1498 147.66 61.2766 148.041 61.2766Z" fill="#3D3D3D"/>
<path d="M155.775 59.7455C156.377 59.9484 156.678 60.3541 156.678 60.9628C156.678 61.4256 156.504 61.7838 156.155 62.0374C155.807 62.291 155.287 62.4178 154.596 62.4178H151.866V57.3014H154.482C155.122 57.3014 155.623 57.4187 155.984 57.6533C156.346 57.8815 156.526 58.2049 156.526 58.6233C156.526 58.8769 156.46 59.102 156.327 59.2985C156.2 59.4887 156.016 59.6377 155.775 59.7455ZM153.226 59.4031H154.348C154.868 59.4031 155.128 59.2193 155.128 58.8516C155.128 58.4902 154.868 58.3095 154.348 58.3095H153.226V59.4031ZM154.472 61.4098C155.017 61.4098 155.29 61.2227 155.29 60.8487C155.29 60.6521 155.227 60.5095 155.1 60.4207C154.973 60.3256 154.773 60.2781 154.501 60.2781H153.226V61.4098H154.472Z" fill="#3D3D3D"/>
<path d="M160.474 58.9372C161.139 58.9435 161.643 59.0925 161.986 59.3841C162.328 59.6758 162.499 60.0942 162.499 60.6394C162.499 61.21 162.306 61.6507 161.919 61.9613C161.532 62.272 160.984 62.4273 160.274 62.4273L157.782 62.4178V57.3014H159.256V58.9372H160.474ZM163.051 57.3014H164.525V62.4178H163.051V57.3014ZM160.141 61.3717C160.426 61.3781 160.645 61.3178 160.797 61.191C160.949 61.0642 161.025 60.874 161.025 60.6204C161.025 60.3732 160.949 60.1925 160.797 60.0784C160.651 59.9642 160.432 59.904 160.141 59.8977L159.256 59.8882V61.3717H160.141Z" fill="#3D3D3D"/>
<path d="M169.169 62.4178L168.047 60.8487L166.887 62.4178H165.27L167.239 59.8406L165.337 57.3014H167.001L168.085 58.7945L169.198 57.3014H170.777L168.875 59.8026L170.853 62.4178H169.169Z" fill="#3D3D3D"/>
<path d="M179.402 57.3014L177.091 62.7317C176.857 63.3213 176.565 63.7365 176.216 63.9775C175.874 64.2184 175.459 64.3388 174.97 64.3388C174.704 64.3388 174.441 64.2976 174.181 64.2152C173.921 64.1328 173.709 64.0187 173.544 63.8729L174.086 62.8172C174.2 62.9187 174.33 62.9979 174.476 63.055C174.628 63.1121 174.777 63.1406 174.923 63.1406C175.126 63.1406 175.291 63.0899 175.417 62.9884C175.544 62.8933 175.658 62.7317 175.76 62.5034L175.779 62.4559L173.563 57.3014H175.094L176.53 60.7726L177.976 57.3014H179.402Z" fill="#3D3D3D"/>
<path d="M182.413 62.4939C181.868 62.4939 181.377 62.383 180.939 62.1611C180.508 61.9328 180.169 61.619 179.921 61.2196C179.681 60.8201 179.56 60.3668 179.56 59.8596C179.56 59.3524 179.681 58.8991 179.921 58.4997C180.169 58.1003 180.508 57.7896 180.939 57.5677C181.377 57.3395 181.868 57.2253 182.413 57.2253C182.952 57.2253 183.421 57.3395 183.821 57.5677C184.226 57.7896 184.521 58.1098 184.705 58.5282L183.554 59.1464C183.288 58.6772 182.904 58.4426 182.404 58.4426C182.017 58.4426 181.697 58.5694 181.443 58.823C181.189 59.0766 181.063 59.4222 181.063 59.8596C181.063 60.2971 181.189 60.6426 181.443 60.8962C181.697 61.1498 182.017 61.2766 182.404 61.2766C182.911 61.2766 183.294 61.042 183.554 60.5729L184.705 61.2005C184.521 61.6063 184.226 61.9233 183.821 62.1515C183.421 62.3798 182.952 62.4939 182.413 62.4939Z" fill="#3D3D3D"/>
<path d="M190.439 57.3014V62.4178H188.956V58.5187H187.339L187.292 59.4222C187.266 60.0942 187.203 60.6521 187.101 61.0959C187 61.5397 186.835 61.8884 186.607 62.142C186.379 62.3956 186.062 62.5224 185.656 62.5224C185.44 62.5224 185.184 62.4844 184.886 62.4083L184.962 61.191C185.063 61.2037 185.136 61.21 185.18 61.21C185.402 61.21 185.567 61.1308 185.675 60.9723C185.789 60.8075 185.865 60.6014 185.903 60.3541C185.941 60.1005 185.97 59.7677 185.989 59.3556L186.065 57.3014H190.439Z" fill="#3D3D3D"/>
<path d="M196.992 57.3014L194.681 62.7317C194.446 63.3213 194.155 63.7365 193.806 63.9775C193.464 64.2184 193.048 64.3388 192.56 64.3388C192.294 64.3388 192.031 64.2976 191.771 64.2152C191.511 64.1328 191.299 64.0187 191.134 63.8729L191.676 62.8172C191.79 62.9187 191.92 62.9979 192.066 63.055C192.218 63.1121 192.367 63.1406 192.513 63.1406C192.716 63.1406 192.88 63.0899 193.007 62.9884C193.134 62.8933 193.248 62.7317 193.35 62.5034L193.369 62.4559L191.153 57.3014H192.684L194.12 60.7726L195.565 57.3014H196.992Z" fill="#3D3D3D"/>
<path d="M201.806 58.5187H199.182V62.4178H197.708V57.3014H201.806V58.5187Z" fill="#3D3D3D"/>
</svg>
