<svg width="70" height="70" viewBox="0 0 70 70" fill="none" xmlns="http://www.w3.org/2000/svg">
<path fill-rule="evenodd" clip-rule="evenodd" d="M34.9979 12.0828L54.1628 20.258V30.4736C54.4201 36.7895 51.0433 50.9039 35.6457 57.8363L35.2648 58.0078L34.8693 57.8737C28.5391 55.7275 15.9253 47.2669 15.9253 30.4955V20.2593L34.9979 12.0828ZM35 14.3911L18.0477 21.6587V30.4955C18.0477 45.6942 29.224 53.5419 35.1589 55.725C49.2547 49.1708 52.2791 36.1688 52.0413 30.5403L52.0403 30.5179V21.6601L35 14.3911ZM43.0974 28.5261C43.5142 28.9382 43.5179 29.6101 43.1058 30.0268L32.9817 40.265L26.7315 33.9744C26.3184 33.5586 26.3205 32.8867 26.7363 32.4736C27.152 32.0605 27.824 32.0627 28.2371 32.4784L32.9781 37.2501L41.5966 28.5345C42.0087 28.1177 42.6807 28.114 43.0974 28.5261Z" fill="#2E61AD"/>
</svg>
