<svg width="60" height="70" viewBox="0 0 60 70" fill="none" xmlns="http://www.w3.org/2000/svg">
<path fill-rule="evenodd" clip-rule="evenodd" d="M29.9702 0L59.2195 12.4769V28.0679C59.6122 37.7072 54.4585 59.2487 30.9587 69.8288L30.3775 70.0905L29.7738 69.8859C20.1128 66.6104 0.861572 53.6979 0.861572 28.1015V12.479L29.9702 0ZM29.9733 3.52304L4.10085 14.6147V28.1015C4.10085 51.2976 21.1581 63.2747 30.2157 66.6066C51.7288 56.6036 56.3446 36.76 55.9816 28.1698L55.9802 28.1357V14.6168L29.9733 3.52304ZM42.3315 25.0957C42.9676 25.7246 42.9733 26.7501 42.3443 27.3862L26.893 43.0116L17.3539 33.4109C16.7234 32.7764 16.7267 31.7509 17.3612 31.1204C17.9958 30.4899 19.0213 30.4932 19.6517 31.1278L26.8875 38.4102L40.041 25.1085C40.67 24.4725 41.6955 24.4667 42.3315 25.0957Z" fill="#2E61AD"/>
</svg>
