<svg width="70" height="70" viewBox="0 0 70 70" fill="none" xmlns="http://www.w3.org/2000/svg">
<path fill-rule="evenodd" clip-rule="evenodd" d="M40.4794 14.5509L35 9.46262L29.5207 14.5509L22.2313 12.884L20.0302 20.0302L12.884 22.2313L14.5509 29.5207L9.46265 35L14.5509 40.4793L12.884 47.7687L20.0302 49.9698L22.2313 57.1161L29.5207 55.4492L35 60.5374L40.4794 55.4492L47.7687 57.1161L49.9699 49.9698L57.1161 47.7687L55.4492 40.4793L60.5374 35L55.4492 29.5207L57.1161 22.2313L49.9699 20.0302L47.7687 12.884L40.4794 14.5509ZM46.2488 15.5166L39.8271 16.9851L35 12.5025L30.173 16.9851L23.7513 15.5166L21.8122 21.8121L15.5166 23.7512L16.9851 30.1729L12.5025 35L16.9851 39.8271L15.5166 46.2488L21.8122 48.1879L23.7513 54.4835L30.173 53.015L35 57.4976L39.8271 53.015L46.2488 54.4835L48.1879 48.1879L54.4835 46.2488L53.015 39.8271L57.4976 35L53.015 30.1729L54.4835 23.7512L48.1879 21.8121L46.2488 15.5166Z" fill="#2E61AD"/>
<path fill-rule="evenodd" clip-rule="evenodd" d="M29.0709 31.694C30.8325 31.694 32.2606 30.2659 32.2606 28.5044C32.2606 26.7428 30.8325 25.3147 29.0709 25.3147C27.3094 25.3147 25.8813 26.7428 25.8813 28.5044C25.8813 30.2659 27.3094 31.694 29.0709 31.694ZM29.0709 33.9215C32.0628 33.9215 34.4881 31.4962 34.4881 28.5044C34.4881 25.5126 32.0628 23.0872 29.0709 23.0872C26.0791 23.0872 23.6538 25.5126 23.6538 28.5044C23.6538 31.4962 26.0791 33.9215 29.0709 33.9215Z" fill="#2E61AD"/>
<path fill-rule="evenodd" clip-rule="evenodd" d="M40.9293 44.6852C42.6909 44.6852 44.119 43.2572 44.119 41.4956C44.119 39.7341 42.6909 38.306 40.9293 38.306C39.1678 38.306 37.7397 39.7341 37.7397 41.4956C37.7397 43.2572 39.1678 44.6852 40.9293 44.6852ZM40.9293 46.9128C43.9212 46.9128 46.3465 44.4874 46.3465 41.4956C46.3465 38.5038 43.9212 36.0785 40.9293 36.0785C37.9375 36.0785 35.5122 38.5038 35.5122 41.4956C35.5122 44.4874 37.9375 46.9128 40.9293 46.9128Z" fill="#2E61AD"/>
<path fill-rule="evenodd" clip-rule="evenodd" d="M44.3973 27.1933L26.6269 44.9638L25.0518 43.3887L42.8222 25.6182L44.3973 27.1933Z" fill="#2E61AD"/>
</svg>
