<svg width="70" height="70" viewBox="0 0 70 70" fill="none" xmlns="http://www.w3.org/2000/svg">
<path d="M35 4C17.9069 4 4 17.9069 4 35C4 52.0931 17.9069 66 35 66C52.0931 66 66 52.0931 66 35C66 17.9069 52.0931 4 35 4ZM35 63.3043C19.3922 63.3043 6.69565 50.6078 6.69565 35C6.69565 19.3922 19.3922 6.69565 35 6.69565C50.6078 6.69565 63.3043 19.3922 63.3043 35C63.3043 50.6078 50.6078 63.3043 35 63.3043Z" fill="#2E61AD"/>
<path d="M28.2608 29.6087C28.2608 27.3794 26.4466 25.5652 24.2173 25.5652C21.988 25.5652 20.1738 27.3794 20.1738 29.6087C20.1738 31.838 21.988 33.6522 24.2173 33.6522C26.4466 33.6522 28.2608 31.838 28.2608 29.6087ZM22.8695 29.6087C22.8695 28.8661 23.4747 28.2609 24.2173 28.2609C24.96 28.2609 25.5651 28.8661 25.5651 29.6087C25.5651 30.3514 24.96 30.9566 24.2173 30.9566C23.4747 30.9566 22.8695 30.3514 22.8695 29.6087Z" fill="#2E61AD"/>
<path d="M45.7825 25.5652C43.5532 25.5652 41.739 27.3794 41.739 29.6087C41.739 31.838 43.5532 33.6522 45.7825 33.6522C48.0118 33.6522 49.826 31.838 49.826 29.6087C49.826 27.3794 48.0118 25.5652 45.7825 25.5652ZM45.7825 30.9566C45.0398 30.9566 44.4347 30.3514 44.4347 29.6087C44.4347 28.8661 45.0398 28.2609 45.7825 28.2609C46.5251 28.2609 47.1303 28.8661 47.1303 29.6087C47.1303 30.3514 46.5251 30.9566 45.7825 30.9566Z" fill="#2E61AD"/>
<path d="M48.0294 42.0828C47.4741 41.5854 46.621 41.634 46.1263 42.1879C43.3147 45.3297 39.2605 47.1304 35 47.1304C30.7409 47.1304 26.6853 45.3297 23.8737 42.1879C23.3763 41.634 22.5259 41.5854 21.9706 42.0828C21.4153 42.5788 21.3694 43.4306 21.8654 43.9859C25.1878 47.6978 29.9753 49.8261 35 49.8261C40.026 49.8261 44.8135 47.6965 48.1346 43.9859C48.6306 43.4306 48.5834 42.5788 48.0294 42.0828Z" fill="#2E61AD"/>
</svg>
