<svg width="13" height="17" viewBox="0 0 13 17" fill="none" xmlns="http://www.w3.org/2000/svg">
<path d="M6.50002 0C3.10516 0 0.343262 2.7619 0.343262 6.15672C0.343262 10.3698 5.85296 16.5548 6.08754 16.8161C6.30787 17.0615 6.69256 17.0611 6.9125 16.8161C7.14708 16.5548 12.6568 10.3698 12.6568 6.15672C12.6567 2.7619 9.89484 0 6.50002 0ZM6.50002 9.25434C4.79198 9.25434 3.40243 7.86476 3.40243 6.15672C3.40243 4.44869 4.79202 3.05914 6.50002 3.05914C8.20802 3.05914 9.59757 4.44872 9.59757 6.15676C9.59757 7.86479 8.20802 9.25434 6.50002 9.25434Z" fill="#2E61AD"/>
</svg>
