<svg width="197" height="60" viewBox="0 0 197 60" fill="none" xmlns="http://www.w3.org/2000/svg">
<path d="M74.6364 20.3137C73.1 20.3137 71.7172 19.9924 70.4881 19.3499C69.273 18.6935 68.3162 17.7856 67.6179 16.6263C66.9195 15.467 66.5703 14.1541 66.5703 12.6876C66.5703 11.221 66.9195 9.90807 67.6179 8.74879C68.3162 7.58951 69.273 6.68862 70.4881 6.04612C71.7172 5.38966 73.1 5.06143 74.6364 5.06143C75.9773 5.06143 77.1854 5.29888 78.2609 5.77376C79.3364 6.24865 80.2303 6.93305 80.9426 7.82695L78.3028 10.2154C77.353 9.07004 76.2007 8.49738 74.8459 8.49738C74.0498 8.49738 73.3374 8.67197 72.7089 9.02115C72.0944 9.37033 71.6125 9.86617 71.2633 10.5087C70.9281 11.1372 70.7605 11.8635 70.7605 12.6876C70.7605 13.5116 70.9281 14.2449 71.2633 14.8874C71.6125 15.5159 72.0944 16.0048 72.7089 16.354C73.3374 16.7031 74.0498 16.8777 74.8459 16.8777C76.2007 16.8777 77.353 16.3051 78.3028 15.1598L80.9426 17.5482C80.2303 18.4421 79.3364 19.1265 78.2609 19.6014C77.1854 20.0762 75.9773 20.3137 74.6364 20.3137Z" fill="#3D3D3D"/>
<path d="M94.5101 8.64404H90.0266V20.0204H85.9412V8.64404H81.4368V5.35475H94.5101V8.64404Z" fill="#3D3D3D"/>
<path d="M103.127 5.35475C104.454 5.35475 105.606 5.57822 106.584 6.02517C107.561 6.45816 108.316 7.08669 108.846 7.91075C109.377 8.72086 109.642 9.67761 109.642 10.781C109.642 11.8844 109.377 12.8412 108.846 13.6513C108.316 14.4614 107.561 15.0899 106.584 15.5369C105.606 15.9699 104.454 16.1864 103.127 16.1864H100.571V20.0204H96.4224V5.35475H103.127ZM102.875 12.918C103.727 12.918 104.37 12.7364 104.803 12.3733C105.236 11.9962 105.452 11.4654 105.452 10.781C105.452 10.0966 105.236 9.56588 104.803 9.18876C104.37 8.81164 103.727 8.62309 102.875 8.62309H100.571V12.918H102.875Z" fill="#3D3D3D"/>
<path d="M118.933 20.3137C117.383 20.3137 115.986 19.9854 114.743 19.329C113.514 18.6725 112.543 17.7647 111.831 16.6054C111.133 15.4461 110.784 14.1402 110.784 12.6876C110.784 11.235 111.133 9.92902 111.831 8.76974C112.543 7.61046 113.514 6.70259 114.743 6.04612C115.986 5.38966 117.383 5.06143 118.933 5.06143C120.484 5.06143 121.874 5.38966 123.103 6.04612C124.346 6.70259 125.316 7.61046 126.015 8.76974C126.727 9.92902 127.083 11.235 127.083 12.6876C127.083 14.1402 126.727 15.4461 126.015 16.6054C125.316 17.7647 124.346 18.6725 123.103 19.329C121.874 19.9854 120.484 20.3137 118.933 20.3137ZM118.933 16.8777C119.674 16.8777 120.344 16.7031 120.945 16.354C121.545 16.0048 122.02 15.5159 122.369 14.8874C122.719 14.2449 122.893 13.5116 122.893 12.6876C122.893 11.8635 122.719 11.1372 122.369 10.5087C122.02 9.86617 121.545 9.37033 120.945 9.02115C120.344 8.67197 119.674 8.49738 118.933 8.49738C118.193 8.49738 117.523 8.67197 116.922 9.02115C116.322 9.37033 115.847 9.86617 115.498 10.5087C115.148 11.1372 114.974 11.8635 114.974 12.6876C114.974 13.5116 115.148 14.2449 115.498 14.8874C115.847 15.5159 116.322 16.0048 116.922 16.354C117.523 16.7031 118.193 16.8777 118.933 16.8777Z" fill="#3D3D3D"/>
<path d="M129.301 5.35475H133.387V13.9656L139.442 5.35475H143.338V20.0204H139.253V11.4305L133.219 20.0204H129.301V5.35475ZM136.299 4.47481C134.818 4.47481 133.729 4.18848 133.031 3.61582C132.346 3.04316 132.004 2.19116 132.004 1.05981H134.79C134.804 1.54867 134.93 1.91182 135.168 2.14926C135.405 2.3867 135.782 2.50543 136.299 2.50543C136.816 2.50543 137.2 2.3867 137.451 2.14926C137.703 1.91182 137.835 1.54867 137.849 1.05981H140.636C140.636 2.19116 140.287 3.04316 139.588 3.61582C138.89 4.18848 137.793 4.47481 136.299 4.47481Z" fill="#3D3D3D"/>
<path d="M80.7122 40.9713L80.6912 33.1985L76.9201 39.5256H75.0764L71.3052 33.3661V40.9713H67.4922V26.3056H70.9071L76.0611 34.7698L81.0893 26.3056H84.5043L84.5462 40.9713H80.7122Z" fill="#3D3D3D"/>
<path d="M97.7848 38.1219H91.5834L90.4311 40.9713H86.199L92.6728 26.3056H96.7582L103.253 40.9713H98.9371L97.7848 38.1219ZM96.5697 35.0631L94.6841 30.3701L92.7985 35.0631H96.5697Z" fill="#3D3D3D"/>
<path d="M111.873 41.2646C110.337 41.2646 108.954 40.9433 107.725 40.3008C106.51 39.6444 105.553 38.7365 104.855 37.5772C104.156 36.4179 103.807 35.105 103.807 33.6384C103.807 32.1719 104.156 30.859 104.855 29.6997C105.553 28.5404 106.51 27.6395 107.725 26.997C108.954 26.3406 110.337 26.0123 111.873 26.0123C113.214 26.0123 114.422 26.2498 115.498 26.7247C116.573 27.1995 117.467 27.8839 118.18 28.7778L115.54 31.1662C114.59 30.0209 113.438 29.4483 112.083 29.4483C111.287 29.4483 110.574 29.6229 109.946 29.972C109.331 30.3212 108.849 30.8171 108.5 31.4596C108.165 32.0881 107.997 32.8144 107.997 33.6384C107.997 34.4625 108.165 35.1958 108.5 35.8383C108.849 36.4668 109.331 36.9557 109.946 37.3049C110.574 37.654 111.287 37.8286 112.083 37.8286C113.438 37.8286 114.59 37.256 115.54 36.1107L118.18 38.4991C117.467 39.393 116.573 40.0774 115.498 40.5522C114.422 41.0271 113.214 41.2646 111.873 41.2646Z" fill="#3D3D3D"/>
<path d="M131.747 29.5949H127.264V40.9713H123.178V29.5949H118.674V26.3056H131.747V29.5949Z" fill="#3D3D3D"/>
<path d="M145.434 37.7658V40.9713H133.659V26.3056H145.161V29.5111H137.766V31.9833H144.281V35.0841H137.766V37.7658H145.434Z" fill="#3D3D3D"/>
<path d="M154.501 26.3056C155.828 26.3056 156.981 26.5291 157.958 26.9761C158.936 27.409 159.69 28.0376 160.221 28.8616C160.752 29.6717 161.017 30.6285 161.017 31.7319C161.017 32.8353 160.752 33.7921 160.221 34.6022C159.69 35.4123 158.936 36.0408 157.958 36.4878C156.981 36.9208 155.828 37.1372 154.501 37.1372H151.945V40.9713H147.797V26.3056H154.501ZM154.25 33.8689C155.102 33.8689 155.744 33.6873 156.177 33.3242C156.61 32.9471 156.827 32.4163 156.827 31.7319C156.827 31.0475 156.61 30.5168 156.177 30.1396C155.744 29.7625 155.102 29.574 154.25 29.574H151.945V33.8689H154.25Z" fill="#3D3D3D"/>
<path d="M25.6663 0L50.5341 14.3574L40.4653 31.2748L28.6428 11.9334H28.6298L15.3299 5.96773L25.6663 0Z" fill="#2E61AD"/>
<path d="M13.0916 7.26004L0 14.8185V44.4554L25.6663 59.2738L50.9692 44.6652L50.8879 31.6896L43.0062 44.9641H37.6134L29.7317 32.26V48.2308H18.5832V11.9334H18.5995L13.0916 7.26004Z" fill="#2E61AD"/>
<path d="M18.5811 11.9169L7.37305 2.41028L9.87718 9.11908L18.5811 11.9169Z" fill="#FF5004"/>
<path d="M69.5371 54.3721H68.7668V56.3121H67.2832V51.1957H68.7668V53.1833H69.5656L70.9541 51.1957H72.5327L70.7449 53.6493L72.6564 56.3121H70.9065L69.5371 54.3721Z" fill="#3D3D3D" fill-opacity="0.5"/>
<path d="M75.6235 56.3882C75.0846 56.3882 74.5996 56.2772 74.1685 56.0553C73.7437 55.8271 73.4108 55.5133 73.1699 55.1138C72.929 54.7144 72.8085 54.2611 72.8085 53.7539C72.8085 53.2467 72.929 52.7934 73.1699 52.394C73.4108 51.9946 73.7437 51.6839 74.1685 51.462C74.5996 51.2338 75.0846 51.1196 75.6235 51.1196C76.1624 51.1196 76.6442 51.2338 77.069 51.462C77.4938 51.6839 77.8267 51.9946 78.0676 52.394C78.3085 52.7934 78.429 53.2467 78.429 53.7539C78.429 54.2611 78.3085 54.7144 78.0676 55.1138C77.8267 55.5133 77.4938 55.8271 77.069 56.0553C76.6442 56.2772 76.1624 56.3882 75.6235 56.3882ZM75.6235 55.1709C76.0039 55.1709 76.3146 55.0441 76.5555 54.7905C76.8027 54.5306 76.9264 54.185 76.9264 53.7539C76.9264 53.3228 76.8027 52.9804 76.5555 52.7268C76.3146 52.4669 76.0039 52.3369 75.6235 52.3369C75.2431 52.3369 74.9293 52.4669 74.682 52.7268C74.4347 52.9804 74.3111 53.3228 74.3111 53.7539C74.3111 54.185 74.4347 54.5306 74.682 54.7905C74.9293 55.0441 75.2431 55.1709 75.6235 55.1709Z" fill="#3D3D3D" fill-opacity="0.5"/>
<path d="M84.4421 56.3121V53.2499L82.911 55.8176H82.2833L80.7903 53.2404V56.3121H79.4494V51.1957H80.9995L82.6352 54.1533L84.3755 51.1957H85.764L85.783 56.3121H84.4421Z" fill="#3D3D3D" fill-opacity="0.5"/>
<path d="M90.1617 51.5476C90.6499 51.5476 91.0779 51.649 91.4456 51.8519C91.8133 52.0484 92.0954 52.3274 92.292 52.6888C92.4949 53.0502 92.5963 53.4686 92.5963 53.9441C92.5963 54.4323 92.4758 54.8666 92.2349 55.247C92.0003 55.621 91.6707 55.9127 91.2459 56.1219C90.8211 56.3248 90.3392 56.4262 89.8003 56.4262C88.9064 56.4262 88.2027 56.1409 87.6891 55.5703C87.1819 54.9934 86.9283 54.1502 86.9283 53.0407C86.9283 52.0136 87.1502 51.1957 87.594 50.5871C88.0442 49.9721 88.7321 49.5695 89.6577 49.3793L92.0923 48.8943L92.292 50.1686L90.1427 50.5966C89.5594 50.7107 89.1251 50.9009 88.8398 51.1672C88.5609 51.4335 88.396 51.8107 88.3453 52.2989C88.5672 52.058 88.8335 51.8741 89.1442 51.7473C89.4548 51.6142 89.794 51.5476 90.1617 51.5476ZM89.8099 55.2755C90.1903 55.2755 90.4946 55.1519 90.7228 54.9046C90.9574 54.6574 91.0747 54.3435 91.0747 53.9631C91.0747 53.5764 90.9574 53.2689 90.7228 53.0407C90.4946 52.8124 90.1903 52.6983 89.8099 52.6983C89.4231 52.6983 89.1125 52.8124 88.8779 53.0407C88.6433 53.2689 88.526 53.5764 88.526 53.9631C88.526 54.3499 88.6465 54.6669 88.8874 54.9141C89.1283 55.1551 89.4358 55.2755 89.8099 55.2755Z" fill="#3D3D3D" fill-opacity="0.5"/>
<path d="M93.6029 51.1957H95.077V54.2389L97.5686 51.1957H98.9286V56.3121H97.4545V53.2689L94.9724 56.3121H93.6029V51.1957Z" fill="#3D3D3D" fill-opacity="0.5"/>
<path d="M100.355 51.1957H101.829V53.1928H104.054V51.1957H105.538V56.3121H104.054V54.4006H101.829V56.3121H100.355V51.1957Z" fill="#3D3D3D" fill-opacity="0.5"/>
<path d="M108.945 51.1196C109.738 51.1196 110.347 51.3098 110.771 51.6902C111.196 52.0643 111.409 52.6317 111.409 53.3925V56.3121H110.02V55.6749C109.741 56.1504 109.221 56.3882 108.46 56.3882C108.067 56.3882 107.725 56.3216 107.433 56.1885C107.148 56.0553 106.929 55.8715 106.777 55.6369C106.625 55.4023 106.549 55.136 106.549 54.8381C106.549 54.3626 106.726 53.9885 107.081 53.7159C107.443 53.4433 107.998 53.3069 108.746 53.3069H109.925C109.925 52.9836 109.827 52.7363 109.63 52.5652C109.434 52.3876 109.139 52.2989 108.746 52.2989C108.473 52.2989 108.204 52.3433 107.937 52.432C107.677 52.5144 107.456 52.6286 107.272 52.7744L106.739 51.7378C107.018 51.5412 107.351 51.3891 107.738 51.2813C108.131 51.1735 108.533 51.1196 108.945 51.1196ZM108.831 55.3896C109.085 55.3896 109.31 55.3326 109.507 55.2185C109.703 55.098 109.843 54.9236 109.925 54.6954V54.1724H108.907C108.299 54.1724 107.994 54.3721 107.994 54.7715C107.994 54.9617 108.067 55.1138 108.213 55.228C108.365 55.3357 108.571 55.3896 108.831 55.3896Z" fill="#3D3D3D" fill-opacity="0.5"/>
<path d="M116.996 52.413H115.265V56.3121H113.791V52.413H112.06V51.1957H116.996V52.413Z" fill="#3D3D3D" fill-opacity="0.5"/>
<path d="M123.438 51.5476C123.926 51.5476 124.354 51.649 124.721 51.8519C125.089 52.0484 125.371 52.3274 125.568 52.6888C125.771 53.0502 125.872 53.4686 125.872 53.9441C125.872 54.4323 125.752 54.8666 125.511 55.247C125.276 55.621 124.946 55.9127 124.522 56.1219C124.097 56.3248 123.615 56.4262 123.076 56.4262C122.182 56.4262 121.478 56.1409 120.965 55.5703C120.458 54.9934 120.204 54.1502 120.204 53.0407C120.204 52.0136 120.426 51.1957 120.87 50.5871C121.32 49.9721 122.008 49.5695 122.934 49.3793L125.368 48.8943L125.568 50.1686L123.419 50.5966C122.835 50.7107 122.401 50.9009 122.116 51.1672C121.837 51.4335 121.672 51.8107 121.621 52.2989C121.843 52.058 122.109 51.8741 122.42 51.7473C122.731 51.6142 123.07 51.5476 123.438 51.5476ZM123.086 55.2755C123.466 55.2755 123.77 55.1519 123.999 54.9046C124.233 54.6574 124.351 54.3435 124.351 53.9631C124.351 53.5764 124.233 53.2689 123.999 53.0407C123.77 52.8124 123.466 52.6983 123.086 52.6983C122.699 52.6983 122.388 52.8124 122.154 53.0407C121.919 53.2689 121.802 53.5764 121.802 53.9631C121.802 54.3499 121.922 54.6669 122.163 54.9141C122.404 55.1551 122.712 55.2755 123.086 55.2755Z" fill="#3D3D3D" fill-opacity="0.5"/>
<path d="M129.57 52.8314C130.236 52.8378 130.74 52.9868 131.082 53.2784C131.425 53.5701 131.596 53.9885 131.596 54.5337C131.596 55.1043 131.402 55.545 131.016 55.8556C130.629 56.1663 130.08 56.3216 129.37 56.3216L126.879 56.3121V51.1957H128.353V52.8314H129.57ZM132.147 51.1957H133.621V56.3121H132.147V51.1957ZM129.237 55.266C129.523 55.2723 129.741 55.2121 129.893 55.0853C130.046 54.9585 130.122 54.7683 130.122 54.5147C130.122 54.2675 130.046 54.0868 129.893 53.9726C129.748 53.8585 129.529 53.7983 129.237 53.792L128.353 53.7824V55.266H129.237Z" fill="#3D3D3D" fill-opacity="0.5"/>
<path d="M139.35 52.413H137.619V56.3121H136.145V52.413H134.414V51.1957H139.35V52.413Z" fill="#3D3D3D" fill-opacity="0.5"/>
<path d="M142.324 56.3882C141.785 56.3882 141.3 56.2772 140.869 56.0553C140.444 55.8271 140.111 55.5133 139.87 55.1138C139.629 54.7144 139.509 54.2611 139.509 53.7539C139.509 53.2467 139.629 52.7934 139.87 52.394C140.111 51.9946 140.444 51.6839 140.869 51.462C141.3 51.2338 141.785 51.1196 142.324 51.1196C142.863 51.1196 143.344 51.2338 143.769 51.462C144.194 51.6839 144.527 51.9946 144.768 52.394C145.009 52.7934 145.129 53.2467 145.129 53.7539C145.129 54.2611 145.009 54.7144 144.768 55.1138C144.527 55.5133 144.194 55.8271 143.769 56.0553C143.344 56.2772 142.863 56.3882 142.324 56.3882ZM142.324 55.1709C142.704 55.1709 143.015 55.0441 143.256 54.7905C143.503 54.5306 143.627 54.185 143.627 53.7539C143.627 53.3228 143.503 52.9804 143.256 52.7268C143.015 52.4669 142.704 52.3369 142.324 52.3369C141.943 52.3369 141.629 52.4669 141.382 52.7268C141.135 52.9804 141.011 53.3228 141.011 53.7539C141.011 54.185 141.135 54.5306 141.382 54.7905C141.629 55.0441 141.943 55.1709 142.324 55.1709Z" fill="#3D3D3D" fill-opacity="0.5"/>
<path d="M150.058 53.6398C150.66 53.8427 150.962 54.2484 150.962 54.8571C150.962 55.3199 150.787 55.6781 150.439 55.9317C150.09 56.1853 149.57 56.3121 148.879 56.3121H146.15V51.1957H148.765C149.405 51.1957 149.906 51.313 150.267 51.5476C150.629 51.7758 150.809 52.0992 150.809 52.5176C150.809 52.7712 150.743 52.9963 150.61 53.1928C150.483 53.383 150.299 53.532 150.058 53.6398ZM147.51 53.2974H148.632C149.152 53.2974 149.412 53.1136 149.412 52.7458C149.412 52.3845 149.152 52.2038 148.632 52.2038H147.51V53.2974ZM148.755 55.304C149.301 55.304 149.573 55.117 149.573 54.743C149.573 54.5464 149.51 54.4038 149.383 54.315C149.256 54.2199 149.056 54.1724 148.784 54.1724H147.51V55.304H148.755Z" fill="#3D3D3D" fill-opacity="0.5"/>
<path d="M154.757 52.8314C155.423 52.8378 155.927 52.9868 156.269 53.2784C156.611 53.5701 156.782 53.9885 156.782 54.5337C156.782 55.1043 156.589 55.545 156.202 55.8556C155.816 56.1663 155.267 56.3216 154.557 56.3216L152.065 56.3121V51.1957H153.54V52.8314H154.757ZM157.334 51.1957H158.808V56.3121H157.334V51.1957ZM154.424 55.266C154.709 55.2723 154.928 55.2121 155.08 55.0853C155.232 54.9585 155.308 54.7683 155.308 54.5147C155.308 54.2675 155.232 54.0868 155.08 53.9726C154.934 53.8585 154.716 53.7983 154.424 53.792L153.54 53.7824V55.266H154.424Z" fill="#3D3D3D" fill-opacity="0.5"/>
<path d="M163.453 56.3121L162.33 54.743L161.17 56.3121H159.553L161.522 53.7349L159.62 51.1957H161.284L162.368 52.6888L163.481 51.1957H165.06L163.158 53.6969L165.136 56.3121H163.453Z" fill="#3D3D3D" fill-opacity="0.5"/>
<path d="M173.685 51.1957L171.374 56.6259C171.14 57.2156 170.848 57.6308 170.499 57.8718C170.157 58.1127 169.742 58.2331 169.254 58.2331C168.987 58.2331 168.724 58.1919 168.464 58.1095C168.204 58.0271 167.992 57.913 167.827 57.7671L168.369 56.7115C168.483 56.813 168.613 56.8922 168.759 56.9493C168.911 57.0063 169.06 57.0349 169.206 57.0349C169.409 57.0349 169.574 56.9842 169.701 56.8827C169.827 56.7876 169.942 56.6259 170.043 56.3977L170.062 56.3501L167.846 51.1957H169.377L170.813 54.6669L172.259 51.1957H173.685Z" fill="#3D3D3D" fill-opacity="0.5"/>
<path d="M176.696 56.3882C176.151 56.3882 175.66 56.2772 175.222 56.0553C174.791 55.8271 174.452 55.5133 174.205 55.1138C173.964 54.7144 173.843 54.2611 173.843 53.7539C173.843 53.2467 173.964 52.7934 174.205 52.394C174.452 51.9946 174.791 51.6839 175.222 51.462C175.66 51.2338 176.151 51.1196 176.696 51.1196C177.235 51.1196 177.704 51.2338 178.104 51.462C178.51 51.6839 178.804 52.0041 178.988 52.4225L177.838 53.0407C177.571 52.5715 177.188 52.3369 176.687 52.3369C176.3 52.3369 175.98 52.4637 175.726 52.7173C175.473 52.9709 175.346 53.3164 175.346 53.7539C175.346 54.1914 175.473 54.5369 175.726 54.7905C175.98 55.0441 176.3 55.1709 176.687 55.1709C177.194 55.1709 177.578 54.9363 177.838 54.4672L178.988 55.0948C178.804 55.5006 178.51 55.8176 178.104 56.0458C177.704 56.2741 177.235 56.3882 176.696 56.3882Z" fill="#3D3D3D" fill-opacity="0.5"/>
<path d="M184.723 51.1957V56.3121H183.239V52.413H181.622L181.575 53.3164C181.549 53.9885 181.486 54.5464 181.385 54.9902C181.283 55.434 181.118 55.7827 180.89 56.0363C180.662 56.2899 180.345 56.4167 179.939 56.4167C179.724 56.4167 179.467 56.3787 179.169 56.3026L179.245 55.0853C179.346 55.098 179.419 55.1043 179.464 55.1043C179.685 55.1043 179.85 55.0251 179.958 54.8666C180.072 54.7017 180.148 54.4957 180.186 54.2484C180.224 53.9948 180.253 53.662 180.272 53.2499L180.348 51.1957H184.723Z" fill="#3D3D3D" fill-opacity="0.5"/>
<path d="M191.275 51.1957L188.964 56.6259C188.73 57.2156 188.438 57.6308 188.089 57.8718C187.747 58.1127 187.332 58.2331 186.843 58.2331C186.577 58.2331 186.314 58.1919 186.054 58.1095C185.794 58.0271 185.582 57.913 185.417 57.7671L185.959 56.7115C186.073 56.813 186.203 56.8922 186.349 56.9493C186.501 57.0063 186.65 57.0349 186.796 57.0349C186.999 57.0349 187.164 56.9842 187.29 56.8827C187.417 56.7876 187.531 56.6259 187.633 56.3977L187.652 56.3501L185.436 51.1957H186.967L188.403 54.6669L189.849 51.1957H191.275Z" fill="#3D3D3D" fill-opacity="0.5"/>
<path d="M196.09 52.413H193.465V56.3121H191.991V51.1957H196.09V52.413Z" fill="#3D3D3D" fill-opacity="0.5"/>
</svg>
