<svg width="198" height="60" viewBox="0 0 198 60" fill="none" xmlns="http://www.w3.org/2000/svg">
<path d="M75.5915 20.6767C74.0551 20.6767 72.6723 20.3555 71.4432 19.713C70.2281 19.0565 69.2713 18.1486 68.5729 16.9894C67.8746 15.8301 67.5254 14.5172 67.5254 13.0506C67.5254 11.584 67.8746 10.2711 68.5729 9.11183C69.2713 7.95254 70.2281 7.05166 71.4432 6.40916C72.6723 5.7527 74.0551 5.42447 75.5915 5.42447C76.9323 5.42447 78.1405 5.66191 79.216 6.1368C80.2915 6.61169 81.1854 7.29608 81.8977 8.18999L79.2579 10.5784C78.3081 9.43307 77.1558 8.86042 75.801 8.86042C75.0049 8.86042 74.2925 9.03501 73.664 9.38419C73.0494 9.73337 72.5676 10.2292 72.2184 10.8717C71.8832 11.5002 71.7156 12.2265 71.7156 13.0506C71.7156 13.8747 71.8832 14.6079 72.2184 15.2504C72.5676 15.879 73.0494 16.3678 73.664 16.717C74.2925 17.0662 75.0049 17.2408 75.801 17.2408C77.1558 17.2408 78.3081 16.6681 79.2579 15.5228L81.8977 17.9112C81.1854 18.8051 80.2915 19.4895 79.216 19.9644C78.1405 20.4393 76.9323 20.6767 75.5915 20.6767Z" fill="white"/>
<path d="M95.4652 9.00707H90.9817V20.3834H86.8963V9.00707H82.3918V5.71778H95.4652V9.00707Z" fill="white"/>
<path d="M104.082 5.71778C105.409 5.71778 106.561 5.94126 107.539 6.38821C108.516 6.8212 109.271 7.44972 109.801 8.27379C110.332 9.08389 110.597 10.0406 110.597 11.1441C110.597 12.2475 110.332 13.2042 109.801 14.0143C109.271 14.8244 108.516 15.453 107.539 15.8999C106.561 16.3329 105.409 16.5494 104.082 16.5494H101.526V20.3834H97.3775V5.71778H104.082ZM103.83 13.2811C104.682 13.2811 105.325 13.0995 105.758 12.7363C106.191 12.3592 106.407 11.8285 106.407 11.1441C106.407 10.4597 106.191 9.92891 105.758 9.5518C105.325 9.17468 104.682 8.98612 103.83 8.98612H101.526V13.2811H103.83Z" fill="white"/>
<path d="M119.889 20.6767C118.338 20.6767 116.941 20.3485 115.698 19.692C114.469 19.0356 113.499 18.1277 112.786 16.9684C112.088 15.8091 111.739 14.5032 111.739 13.0506C111.739 11.598 112.088 10.2921 112.786 9.13278C113.499 7.9735 114.469 7.06562 115.698 6.40916C116.941 5.7527 118.338 5.42447 119.889 5.42447C121.439 5.42447 122.829 5.7527 124.058 6.40916C125.301 7.06562 126.272 7.9735 126.97 9.13278C127.682 10.2921 128.038 11.598 128.038 13.0506C128.038 14.5032 127.682 15.8091 126.97 16.9684C126.272 18.1277 125.301 19.0356 124.058 19.692C122.829 20.3485 121.439 20.6767 119.889 20.6767ZM119.889 17.2408C120.629 17.2408 121.299 17.0662 121.9 16.717C122.5 16.3678 122.975 15.879 123.324 15.2504C123.674 14.6079 123.848 13.8747 123.848 13.0506C123.848 12.2265 123.674 11.5002 123.324 10.8717C122.975 10.2292 122.5 9.73337 121.9 9.38419C121.299 9.03501 120.629 8.86042 119.889 8.86042C119.148 8.86042 118.478 9.03501 117.877 9.38419C117.277 9.73337 116.802 10.2292 116.453 10.8717C116.103 11.5002 115.929 12.2265 115.929 13.0506C115.929 13.8747 116.103 14.6079 116.453 15.2504C116.802 15.879 117.277 16.3678 117.877 16.717C118.478 17.0662 119.148 17.2408 119.889 17.2408Z" fill="white"/>
<path d="M130.256 5.71778H134.342V14.3286L140.397 5.71778H144.294V20.3834H140.208V11.7935L134.174 20.3834H130.256V5.71778ZM137.254 4.83785C135.774 4.83785 134.684 4.55152 133.986 3.97886C133.301 3.4062 132.959 2.5542 132.959 1.42285H135.746C135.76 1.91171 135.885 2.27485 136.123 2.5123C136.36 2.74974 136.737 2.86846 137.254 2.86846C137.771 2.86846 138.155 2.74974 138.406 2.5123C138.658 2.27485 138.79 1.91171 138.804 1.42285H141.591C141.591 2.5542 141.242 3.4062 140.543 3.97886C139.845 4.55152 138.749 4.83785 137.254 4.83785Z" fill="white"/>
<path d="M81.6672 41.3343L81.6463 33.5615L77.8751 39.8887H76.0315L72.2603 33.7291V41.3343H68.4472V26.6687H71.8622L77.0161 35.1328L82.0444 26.6687H85.4593L85.5013 41.3343H81.6672Z" fill="white"/>
<path d="M98.7399 38.485H92.5385L91.3862 41.3343H87.1541L93.6279 26.6687H97.7133L104.208 41.3343H99.8922L98.7399 38.485ZM97.5248 35.4261L95.6392 30.7331L93.7536 35.4261H97.5248Z" fill="white"/>
<path d="M112.828 41.6276C111.292 41.6276 109.909 41.3064 108.68 40.6639C107.465 40.0074 106.508 39.0995 105.81 37.9403C105.111 36.781 104.762 35.468 104.762 34.0015C104.762 32.5349 105.111 31.222 105.81 30.0627C106.508 28.9034 107.465 28.0025 108.68 27.3601C109.909 26.7036 111.292 26.3754 112.828 26.3754C114.169 26.3754 115.377 26.6128 116.453 27.0877C117.528 27.5626 118.422 28.247 119.135 29.1409L116.495 31.5293C115.545 30.384 114.393 29.8113 113.038 29.8113C112.242 29.8113 111.529 29.9859 110.901 30.3351C110.286 30.6843 109.805 31.1801 109.455 31.8226C109.12 32.4511 108.952 33.1774 108.952 34.0015C108.952 34.8256 109.12 35.5588 109.455 36.2013C109.805 36.8299 110.286 37.3187 110.901 37.6679C111.529 38.0171 112.242 38.1917 113.038 38.1917C114.393 38.1917 115.545 37.619 116.495 36.4737L119.135 38.8621C118.422 39.756 117.528 40.4404 116.453 40.9153C115.377 41.3902 114.169 41.6276 112.828 41.6276Z" fill="white"/>
<path d="M132.702 29.958H128.219V41.3343H124.133V29.958H119.629V26.6687H132.702V29.958Z" fill="white"/>
<path d="M146.389 38.1288V41.3343H134.614V26.6687H146.116V29.8742H138.721V32.3464H145.236V35.4471H138.721V38.1288H146.389Z" fill="white"/>
<path d="M155.456 26.6687C156.783 26.6687 157.936 26.8921 158.913 27.3391C159.891 27.7721 160.645 28.4006 161.176 29.2247C161.707 30.0348 161.972 30.9915 161.972 32.095C161.972 33.1984 161.707 34.1551 161.176 34.9652C160.645 35.7753 159.891 36.4039 158.913 36.8508C157.936 37.2838 156.783 37.5003 155.456 37.5003H152.9V41.3343H148.752V26.6687H155.456ZM155.205 34.2319C156.057 34.2319 156.7 34.0504 157.132 33.6872C157.565 33.3101 157.782 32.7793 157.782 32.095C157.782 31.4106 157.565 30.8798 157.132 30.5027C156.7 30.1256 156.057 29.937 155.205 29.937H152.9V34.2319H155.205Z" fill="white"/>
<path d="M26.6214 0.363281L51.4892 14.7207L41.4204 31.638L29.5978 12.2967H29.5849L16.285 6.33101L26.6214 0.363281Z" fill="white"/>
<path d="M14.0466 7.62332L0.955078 15.1817V44.8187L26.6214 59.6371L51.9243 45.0285L51.843 32.0529L43.9612 45.3273H38.5685L30.6868 32.6233V48.5941H19.5383V12.2967H19.5546L14.0466 7.62332Z" fill="white"/>
<path d="M19.5362 12.2801L8.32812 2.77344L10.8323 9.48224L19.5362 12.2801Z" fill="white"/>
<path d="M70.4922 54.7351H69.7218V56.6751H68.2383V51.5588H69.7218V53.5463H70.5207L71.9092 51.5588H73.4878L71.6999 54.0123L73.6114 56.6751H71.8616L70.4922 54.7351Z" fill="white" fill-opacity="0.5"/>
<path d="M76.5786 56.7512C76.0397 56.7512 75.5547 56.6403 75.1235 56.4184C74.6988 56.1901 74.3659 55.8763 74.125 55.4769C73.8841 55.0775 73.7636 54.6241 73.7636 54.1169C73.7636 53.6097 73.8841 53.1564 74.125 52.757C74.3659 52.3576 74.6988 52.0469 75.1235 51.825C75.5547 51.5968 76.0397 51.4827 76.5786 51.4827C77.1175 51.4827 77.5993 51.5968 78.0241 51.825C78.4489 52.0469 78.7817 52.3576 79.0227 52.757C79.2636 53.1564 79.384 53.6097 79.384 54.1169C79.384 54.6241 79.2636 55.0775 79.0227 55.4769C78.7817 55.8763 78.4489 56.1901 78.0241 56.4184C77.5993 56.6403 77.1175 56.7512 76.5786 56.7512ZM76.5786 55.5339C76.959 55.5339 77.2696 55.4071 77.5106 55.1535C77.7578 54.8936 77.8814 54.5481 77.8814 54.1169C77.8814 53.6858 77.7578 53.3435 77.5106 53.0899C77.2696 52.8299 76.959 52.7 76.5786 52.7C76.1982 52.7 75.8843 52.8299 75.6371 53.0899C75.3898 53.3435 75.2662 53.6858 75.2662 54.1169C75.2662 54.5481 75.3898 54.8936 75.6371 55.1535C75.8843 55.4071 76.1982 55.5339 76.5786 55.5339Z" fill="white" fill-opacity="0.5"/>
<path d="M85.3972 56.6751V53.6129L83.8661 56.1806H83.2384L81.7453 53.6034V56.6751H80.4044V51.5588H81.9546L83.5903 54.5164L85.3306 51.5588H86.7191L86.7381 56.6751H85.3972Z" fill="white" fill-opacity="0.5"/>
<path d="M91.1168 51.9106C91.605 51.9106 92.0329 52.0121 92.4007 52.2149C92.7684 52.4115 93.0505 52.6904 93.2471 53.0518C93.4499 53.4132 93.5514 53.8316 93.5514 54.3071C93.5514 54.7953 93.4309 55.2296 93.19 55.61C92.9554 55.9841 92.6257 56.2757 92.201 56.4849C91.7762 56.6878 91.2943 56.7893 90.7554 56.7893C89.8615 56.7893 89.1577 56.504 88.6442 55.9334C88.137 55.3564 87.8834 54.5132 87.8834 53.4037C87.8834 52.3766 88.1053 51.5588 88.5491 50.9501C88.9992 50.3351 89.6871 49.9325 90.6128 49.7423L93.0473 49.2573L93.2471 50.5317L91.0978 50.9596C90.5145 51.0737 90.0802 51.2639 89.7949 51.5302C89.516 51.7965 89.3511 52.1737 89.3004 52.6619C89.5223 52.421 89.7886 52.2371 90.0992 52.1103C90.4099 51.9772 90.7491 51.9106 91.1168 51.9106ZM90.7649 55.6386C91.1453 55.6386 91.4497 55.5149 91.6779 55.2677C91.9125 55.0204 92.0298 54.7066 92.0298 54.3262C92.0298 53.9394 91.9125 53.6319 91.6779 53.4037C91.4497 53.1755 91.1453 53.0613 90.7649 53.0613C90.3782 53.0613 90.0675 53.1755 89.833 53.4037C89.5984 53.6319 89.4811 53.9394 89.4811 54.3262C89.4811 54.7129 89.6015 55.0299 89.8425 55.2772C90.0834 55.5181 90.3909 55.6386 90.7649 55.6386Z" fill="white" fill-opacity="0.5"/>
<path d="M94.558 51.5588H96.0321V54.602L98.5237 51.5588H99.8836V56.6751H98.4096V53.6319L95.9275 56.6751H94.558V51.5588Z" fill="white" fill-opacity="0.5"/>
<path d="M101.31 51.5588H102.784V53.5559H105.009V51.5588H106.493V56.6751H105.009V54.7636H102.784V56.6751H101.31V51.5588Z" fill="white" fill-opacity="0.5"/>
<path d="M109.901 51.4827C110.693 51.4827 111.302 51.6729 111.726 52.0533C112.151 52.4273 112.364 52.9948 112.364 53.7556V56.6751H110.975V56.038C110.696 56.5135 110.176 56.7512 109.416 56.7512C109.022 56.7512 108.68 56.6847 108.388 56.5515C108.103 56.4184 107.884 56.2345 107.732 55.9999C107.58 55.7654 107.504 55.4991 107.504 55.2011C107.504 54.7256 107.682 54.3515 108.037 54.0789C108.398 53.8063 108.953 53.67 109.701 53.67H110.88C110.88 53.3466 110.782 53.0994 110.585 52.9282C110.389 52.7507 110.094 52.6619 109.701 52.6619C109.428 52.6619 109.159 52.7063 108.892 52.7951C108.633 52.8775 108.411 52.9916 108.227 53.1374L107.694 52.1008C107.973 51.9043 108.306 51.7521 108.693 51.6443C109.086 51.5366 109.488 51.4827 109.901 51.4827ZM109.786 55.7527C110.04 55.7527 110.265 55.6956 110.462 55.5815C110.658 55.461 110.798 55.2867 110.88 55.0584V54.5354H109.862C109.254 54.5354 108.95 54.7351 108.95 55.1345C108.95 55.3247 109.022 55.4769 109.168 55.591C109.32 55.6988 109.526 55.7527 109.786 55.7527Z" fill="white" fill-opacity="0.5"/>
<path d="M117.951 52.776H116.22V56.6751H114.746V52.776H113.015V51.5588H117.951V52.776Z" fill="white" fill-opacity="0.5"/>
<path d="M124.393 51.9106C124.881 51.9106 125.309 52.0121 125.676 52.2149C126.044 52.4115 126.326 52.6904 126.523 53.0518C126.726 53.4132 126.827 53.8316 126.827 54.3071C126.827 54.7953 126.707 55.2296 126.466 55.61C126.231 55.9841 125.902 56.2757 125.477 56.4849C125.052 56.6878 124.57 56.7893 124.031 56.7893C123.137 56.7893 122.434 56.504 121.92 55.9334C121.413 55.3564 121.159 54.5132 121.159 53.4037C121.159 52.3766 121.381 51.5588 121.825 50.9501C122.275 50.3351 122.963 49.9325 123.889 49.7423L126.323 49.2573L126.523 50.5317L124.374 50.9596C123.79 51.0737 123.356 51.2639 123.071 51.5302C122.792 51.7965 122.627 52.1737 122.576 52.6619C122.798 52.421 123.064 52.2371 123.375 52.1103C123.686 51.9772 124.025 51.9106 124.393 51.9106ZM124.041 55.6386C124.421 55.6386 124.725 55.5149 124.954 55.2677C125.188 55.0204 125.306 54.7066 125.306 54.3262C125.306 53.9394 125.188 53.6319 124.954 53.4037C124.725 53.1755 124.421 53.0613 124.041 53.0613C123.654 53.0613 123.343 53.1755 123.109 53.4037C122.874 53.6319 122.757 53.9394 122.757 54.3262C122.757 54.7129 122.877 55.0299 123.118 55.2772C123.359 55.5181 123.667 55.6386 124.041 55.6386Z" fill="white" fill-opacity="0.5"/>
<path d="M130.525 53.1945C131.191 53.2008 131.695 53.3498 132.037 53.6414C132.38 53.9331 132.551 54.3515 132.551 54.8968C132.551 55.4674 132.357 55.908 131.971 56.2187C131.584 56.5293 131.036 56.6847 130.325 56.6847L127.834 56.6751V51.5588H129.308V53.1945H130.525ZM133.102 51.5588H134.576V56.6751H133.102V51.5588ZM130.192 55.629C130.478 55.6354 130.696 55.5752 130.849 55.4484C131.001 55.3216 131.077 55.1314 131.077 54.8777C131.077 54.6305 131.001 54.4498 130.849 54.3357C130.703 54.2216 130.484 54.1613 130.192 54.155L129.308 54.1455V55.629H130.192Z" fill="white" fill-opacity="0.5"/>
<path d="M140.305 52.776H138.574V56.6751H137.1V52.776H135.369V51.5588H140.305V52.776Z" fill="white" fill-opacity="0.5"/>
<path d="M143.279 56.7512C142.74 56.7512 142.255 56.6403 141.824 56.4184C141.399 56.1901 141.066 55.8763 140.825 55.4769C140.584 55.0775 140.464 54.6241 140.464 54.1169C140.464 53.6097 140.584 53.1564 140.825 52.757C141.066 52.3576 141.399 52.0469 141.824 51.825C142.255 51.5968 142.74 51.4827 143.279 51.4827C143.818 51.4827 144.3 51.5968 144.724 51.825C145.149 52.0469 145.482 52.3576 145.723 52.757C145.964 53.1564 146.084 53.6097 146.084 54.1169C146.084 54.6241 145.964 55.0775 145.723 55.4769C145.482 55.8763 145.149 56.1901 144.724 56.4184C144.3 56.6403 143.818 56.7512 143.279 56.7512ZM143.279 55.5339C143.659 55.5339 143.97 55.4071 144.211 55.1535C144.458 54.8936 144.582 54.5481 144.582 54.1169C144.582 53.6858 144.458 53.3435 144.211 53.0899C143.97 52.8299 143.659 52.7 143.279 52.7C142.898 52.7 142.585 52.8299 142.337 53.0899C142.09 53.3435 141.966 53.6858 141.966 54.1169C141.966 54.5481 142.09 54.8936 142.337 55.1535C142.585 55.4071 142.898 55.5339 143.279 55.5339Z" fill="white" fill-opacity="0.5"/>
<path d="M151.013 54.0028C151.616 54.2057 151.917 54.6115 151.917 55.2201C151.917 55.6829 151.742 56.0411 151.394 56.2947C151.045 56.5483 150.525 56.6751 149.834 56.6751H147.105V51.5588H149.72C150.36 51.5588 150.861 51.676 151.222 51.9106C151.584 52.1389 151.765 52.4622 151.765 52.8806C151.765 53.1342 151.698 53.3593 151.565 53.5559C151.438 53.7461 151.254 53.895 151.013 54.0028ZM148.465 53.6605H149.587C150.107 53.6605 150.367 53.4766 150.367 53.1089C150.367 52.7475 150.107 52.5668 149.587 52.5668H148.465V53.6605ZM149.71 55.6671C150.256 55.6671 150.528 55.4801 150.528 55.106C150.528 54.9095 150.465 54.7668 150.338 54.678C150.211 54.5829 150.012 54.5354 149.739 54.5354H148.465V55.6671H149.71Z" fill="white" fill-opacity="0.5"/>
<path d="M155.712 53.1945C156.378 53.2008 156.882 53.3498 157.224 53.6414C157.566 53.9331 157.738 54.3515 157.738 54.8968C157.738 55.4674 157.544 55.908 157.157 56.2187C156.771 56.5293 156.222 56.6847 155.512 56.6847L153.021 56.6751V51.5588H154.495V53.1945H155.712ZM158.289 51.5588H159.763V56.6751H158.289V51.5588ZM155.379 55.629C155.664 55.6354 155.883 55.5752 156.035 55.4484C156.187 55.3216 156.263 55.1314 156.263 54.8777C156.263 54.6305 156.187 54.4498 156.035 54.3357C155.889 54.2216 155.671 54.1613 155.379 54.155L154.495 54.1455V55.629H155.379Z" fill="white" fill-opacity="0.5"/>
<path d="M164.408 56.6751L163.285 55.106L162.125 56.6751H160.509L162.477 54.0979L160.575 51.5588H162.239L163.323 53.0518L164.436 51.5588H166.015L164.113 54.0599L166.091 56.6751H164.408Z" fill="white" fill-opacity="0.5"/>
<path d="M174.64 51.5588L172.329 56.989C172.095 57.5786 171.803 57.9939 171.455 58.2348C171.112 58.4757 170.697 58.5962 170.209 58.5962C169.942 58.5962 169.679 58.555 169.419 58.4725C169.159 58.3901 168.947 58.276 168.782 58.1302L169.324 57.0746C169.438 57.176 169.568 57.2553 169.714 57.3123C169.866 57.3694 170.015 57.3979 170.161 57.3979C170.364 57.3979 170.529 57.3472 170.656 57.2457C170.783 57.1506 170.897 56.989 170.998 56.7607L171.017 56.7132L168.801 51.5588H170.332L171.768 55.0299L173.214 51.5588H174.64Z" fill="white" fill-opacity="0.5"/>
<path d="M177.651 56.7512C177.106 56.7512 176.615 56.6403 176.177 56.4184C175.746 56.1901 175.407 55.8763 175.16 55.4769C174.919 55.0775 174.798 54.6241 174.798 54.1169C174.798 53.6097 174.919 53.1564 175.16 52.757C175.407 52.3576 175.746 52.0469 176.177 51.825C176.615 51.5968 177.106 51.4827 177.651 51.4827C178.19 51.4827 178.659 51.5968 179.059 51.825C179.465 52.0469 179.759 52.3671 179.943 52.7855L178.793 53.4037C178.526 52.9345 178.143 52.7 177.642 52.7C177.255 52.7 176.935 52.8268 176.681 53.0804C176.428 53.334 176.301 53.6795 176.301 54.1169C176.301 54.5544 176.428 54.8999 176.681 55.1535C176.935 55.4071 177.255 55.5339 177.642 55.5339C178.149 55.5339 178.533 55.2994 178.793 54.8302L179.943 55.4579C179.759 55.8636 179.465 56.1806 179.059 56.4089C178.659 56.6371 178.19 56.7512 177.651 56.7512Z" fill="white" fill-opacity="0.5"/>
<path d="M185.678 51.5588V56.6751H184.194V52.776H182.577L182.53 53.6795C182.505 54.3515 182.441 54.9095 182.34 55.3533C182.238 55.7971 182.073 56.1458 181.845 56.3994C181.617 56.653 181.3 56.7798 180.894 56.7798C180.679 56.7798 180.422 56.7417 180.124 56.6656L180.2 55.4484C180.301 55.461 180.374 55.4674 180.419 55.4674C180.641 55.4674 180.805 55.3881 180.913 55.2296C181.027 55.0648 181.103 54.8587 181.141 54.6115C181.179 54.3579 181.208 54.025 181.227 53.6129L181.303 51.5588H185.678Z" fill="white" fill-opacity="0.5"/>
<path d="M192.23 51.5588L189.919 56.989C189.685 57.5786 189.393 57.9939 189.044 58.2348C188.702 58.4757 188.287 58.5962 187.799 58.5962C187.532 58.5962 187.269 58.555 187.009 58.4725C186.749 58.3901 186.537 58.276 186.372 58.1302L186.914 57.0746C187.028 57.176 187.158 57.2553 187.304 57.3123C187.456 57.3694 187.605 57.3979 187.751 57.3979C187.954 57.3979 188.119 57.3472 188.246 57.2457C188.372 57.1506 188.486 56.989 188.588 56.7607L188.607 56.7132L186.391 51.5588H187.922L189.358 55.0299L190.804 51.5588H192.23Z" fill="white" fill-opacity="0.5"/>
<path d="M197.045 52.776H194.42V56.6751H192.946V51.5588H197.045V52.776Z" fill="white" fill-opacity="0.5"/>
</svg>
