<svg width="30" height="30" viewBox="0 0 30 30" fill="none" xmlns="http://www.w3.org/2000/svg">
<path d="M25.4487 19.4296L22.5076 16.4884C21.4571 15.438 19.6714 15.8582 19.2512 17.2237C18.9361 18.1691 17.8857 18.6943 16.9403 18.4842C14.8395 17.959 12.0033 15.2279 11.4781 13.022C11.163 12.0766 11.7932 11.0262 12.7386 10.7111C14.1042 10.2909 14.5243 8.50521 13.4739 7.45478L10.5327 4.5136C9.6924 3.7783 8.4319 3.7783 7.6966 4.5136L5.7008 6.5094C3.70499 8.61025 5.91088 14.1775 10.8479 19.1145C15.7849 24.0515 21.3521 26.3624 23.4529 24.2615L25.4487 22.2657C26.1841 21.4254 26.1841 20.1649 25.4487 19.4296Z" fill="white"/>
</svg>
