<svg width="70" height="70" viewBox="0 0 70 70" fill="none" xmlns="http://www.w3.org/2000/svg">
<path fill-rule="evenodd" clip-rule="evenodd" d="M54.2055 46.6906L54.2055 46.6906L48.1995 40.6846C47.0314 39.5165 45.2001 40.0859 44.8024 41.3783L44.7958 41.4L44.7886 41.4215C43.7988 44.3911 40.6052 45.9122 37.7896 45.2864L37.7645 45.2808L37.7396 45.2746C35.1206 44.6198 32.3023 42.6965 30.0562 40.4789C27.833 38.2838 25.8517 35.4859 25.1765 32.7554C24.2021 29.6622 26.2603 26.5667 29.0155 25.6484L29.0371 25.6413L29.0588 25.6346C30.3512 25.2369 30.9205 23.4056 29.7524 22.2375L23.7986 16.2837C22.771 15.4209 21.4023 15.5502 20.721 16.2315L16.6656 20.2869C16.1028 20.8889 15.7181 21.8524 15.7236 23.3308C15.7291 24.8305 16.1424 26.7148 17.0219 28.8886C18.7784 33.2296 22.2541 38.3791 27.156 43.281C32.0643 48.1893 37.2169 51.7178 41.5574 53.4992C43.7312 54.3913 45.6077 54.8067 47.0954 54.804C48.5668 54.8013 49.524 54.3975 50.13 53.7915L50.13 53.7915L54.1534 49.7682C55.0162 48.7406 54.8869 47.3719 54.2055 46.6906ZM55.5885 51.0991L51.513 55.1746C47.223 59.4647 35.8545 54.7456 25.773 44.6641C15.6914 34.5825 11.1869 23.214 15.2624 18.924L19.338 14.8485C20.8395 13.347 23.4135 13.347 25.1295 14.8485L31.1355 20.8545C33.2805 22.9995 32.4225 26.646 29.634 27.504C27.7035 28.1474 26.4165 30.2924 27.06 32.223C28.1325 36.7275 33.924 42.3045 38.214 43.377C40.1445 43.8061 42.2895 42.7336 42.933 40.803C43.791 38.0146 47.4375 37.1565 49.5825 39.3015L55.5885 45.3076C57.0901 46.8091 57.0901 49.3831 55.5885 51.0991Z" fill="#2E61AD"/>
</svg>
