<svg width="70" height="70" viewBox="0 0 70 70" fill="none" xmlns="http://www.w3.org/2000/svg">
<path fill-rule="evenodd" clip-rule="evenodd" d="M35.0354 55.399C46.2818 55.399 55.3987 46.282 55.3987 35.0356C55.3987 23.7893 46.2818 14.6723 35.0354 14.6723C23.789 14.6723 14.6721 23.7893 14.6721 35.0356C14.6721 46.282 23.789 55.399 35.0354 55.399ZM35.0354 57.3059C47.3349 57.3059 57.3057 47.3352 57.3057 35.0356C57.3057 22.7361 47.3349 12.7654 35.0354 12.7654C22.7359 12.7654 12.7651 22.7361 12.7651 35.0356C12.7651 47.3352 22.7359 57.3059 35.0354 57.3059Z" fill="#2E61AD"/>
<path fill-rule="evenodd" clip-rule="evenodd" d="M34.1077 21.2876H36.0146V34.5844L43.8955 42.5194L42.5425 43.8632L34.1077 35.3705V21.2876Z" fill="#2E61AD"/>
</svg>
