<svg width="70" height="70" viewBox="0 0 70 70" fill="none" xmlns="http://www.w3.org/2000/svg">
<path fill-rule="evenodd" clip-rule="evenodd" d="M35.0357 67.0713C52.7285 67.0713 67.0713 52.7285 67.0713 35.0357C67.0713 17.3429 52.7285 3 35.0357 3C17.3429 3 3 17.3429 3 35.0357C3 52.7285 17.3429 67.0713 35.0357 67.0713ZM35.0357 70.0713C54.3853 70.0713 70.0713 54.3853 70.0713 35.0357C70.0713 15.686 54.3853 0 35.0357 0C15.686 0 0 15.686 0 35.0357C0 54.3853 15.686 70.0713 35.0357 70.0713Z" fill="#2E61AD"/>
<path fill-rule="evenodd" clip-rule="evenodd" d="M33.5762 13.4072H36.5762V34.3258L48.9745 46.8092L46.8459 48.9233L33.5762 35.5624V13.4072Z" fill="#2E61AD"/>
</svg>
