<svg width="70" height="70" viewBox="0 0 70 70" fill="none" xmlns="http://www.w3.org/2000/svg">
<path d="M49.7258 40.7033C48.7612 38.6923 45.3104 35.9008 41.9764 33.2037C40.1168 31.7005 38.3597 30.2792 37.2395 29.159C36.9589 28.8764 36.5391 28.7862 36.1684 28.9194C35.4783 29.1693 35.0522 29.3618 34.7164 29.5112C34.2045 29.7406 34.0325 29.8184 33.3422 29.888C33.0371 29.9187 32.7627 30.0826 32.5927 30.3365C31.1447 32.5012 29.6456 32.3169 28.6442 31.9811C28.3247 31.8746 28.2674 31.7373 28.2367 31.6063C28.0216 30.7073 29.1009 28.6142 30.4996 27.2154C33.8276 23.8855 35.5438 23.0519 39.1686 24.6719C43.2809 26.5109 47.4014 27.9507 47.4424 27.965C47.9811 28.1513 48.5606 27.8687 48.7469 27.3342C48.9312 26.7997 48.6506 26.216 48.1161 26.0297C48.0751 26.0154 44.0366 24.6043 40.0062 22.8C35.3103 20.7008 32.7339 22.0832 29.0537 25.7655C27.6529 27.1663 25.7503 30.0006 26.2418 32.0794C26.4527 32.9641 27.0754 33.6195 28.001 33.9245C30.3214 34.6905 32.4389 33.9573 34.0158 31.8643C34.6671 31.764 35.0214 31.6166 35.5538 31.3769C35.7463 31.2909 35.9716 31.1906 36.2706 31.0697C37.4421 32.1695 39.0231 33.4494 40.6881 34.7949C43.6986 37.2299 47.1126 39.9906 47.8805 41.5881C48.2594 42.3765 47.8518 42.8906 47.5754 43.126C47.1699 43.4742 46.6149 43.5848 46.3139 43.3738C45.9821 43.1465 45.55 43.1322 45.208 43.3369C44.8639 43.5417 44.6714 43.9288 44.7144 44.3261C44.784 44.9774 44.1881 45.3501 43.93 45.4791C43.2747 45.8109 42.5907 45.7536 42.3346 45.516C42.0479 45.2498 41.6363 45.1719 41.2718 45.3071C40.9073 45.4443 40.6532 45.7802 40.6164 46.1693C40.5549 46.841 40.0573 47.4861 39.4081 47.738C39.0947 47.8567 38.6401 47.9284 38.2326 47.5557C37.9786 47.3263 37.6263 47.2382 37.2967 47.3181C36.9629 47.4 36.6946 47.6417 36.5778 47.9632C36.539 48.0656 36.4508 48.3114 35.4924 48.3114C34.8104 48.3114 33.5837 47.8506 32.9837 47.4532C32.2648 46.9802 27.7573 43.6174 23.8642 40.3571C23.3174 39.8963 22.3712 38.9091 21.5356 38.0367C20.7942 37.2626 20.1164 36.5602 19.7682 36.2653C19.332 35.8966 18.6869 35.9519 18.3244 36.3861C17.9599 36.8182 18.0131 37.4654 18.4453 37.8299C18.7627 38.0982 19.3771 38.7474 20.055 39.4539C20.9684 40.4082 21.9124 41.3954 22.5474 41.9279C26.3607 45.1207 30.944 48.5674 31.8573 49.1674C32.611 49.663 34.235 50.3593 35.4925 50.3593C36.5021 50.3593 37.2783 50.1278 37.8169 49.6753C38.5377 49.9559 39.357 49.9579 40.1454 49.6507C41.0773 49.2903 41.8431 48.5633 42.2773 47.6827C43.0842 47.8547 44.0079 47.7338 44.8475 47.312C45.6688 46.8984 46.2626 46.2656 46.5575 45.5262C47.3726 45.5692 48.2122 45.2804 48.9065 44.6845C50.0822 43.679 50.4057 42.1144 49.7258 40.7033Z" fill="#2E61AD"/>
<path d="M31.3968 23.736H22.181C21.6158 23.736 21.157 24.1947 21.157 24.76C21.157 25.3252 21.6158 25.784 22.181 25.784H31.3968C31.962 25.784 32.4208 25.3252 32.4208 24.76C32.4208 24.1947 31.962 23.736 31.3968 23.736Z" fill="#2E61AD"/>
<path d="M52.7261 38.5243C52.4087 38.0553 51.7738 37.9263 51.3049 38.2458L48.3108 40.2568C47.8419 40.5722 47.7169 41.2091 48.0323 41.6781C48.2309 41.971 48.5545 42.1307 48.8843 42.1307C49.0789 42.1307 49.2775 42.0754 49.4537 41.9567L52.4477 39.9456C52.9166 39.6302 53.0415 38.9933 52.7261 38.5243Z" fill="#2E61AD"/>
<path d="M46.3692 43.4108C45.636 42.8332 42.3572 39.4767 40.3297 37.3632C39.9385 36.9535 39.2894 36.9392 38.8818 37.3324C38.4722 37.7236 38.4599 38.3728 38.8511 38.7804C39.3774 39.3292 44.0201 44.1686 45.0994 45.0205C45.2857 45.168 45.511 45.2397 45.7322 45.2397C46.0333 45.2397 46.3343 45.1045 46.5391 44.8485C46.8894 44.4061 46.8136 43.761 46.3692 43.4108Z" fill="#2E61AD"/>
<path d="M42.2775 45.4649C41.0508 44.4839 37.9687 41.2092 37.2723 40.4515C36.8872 40.0337 36.2421 40.0091 35.8243 40.39C35.4086 40.773 35.38 41.4222 35.7629 41.838C35.7998 41.8768 39.4779 45.8479 40.9975 47.0644C41.1859 47.2138 41.4133 47.2876 41.6364 47.2876C41.9355 47.2876 42.2344 47.1544 42.4372 46.9046C42.7896 46.4622 42.7179 45.8171 42.2775 45.4649Z" fill="#2E61AD"/>
<path d="M38.2019 47.5272C36.7417 46.2964 33.7537 43.1159 33.1701 42.4912C32.783 42.0776 32.1338 42.055 31.7221 42.4421C31.3085 42.8291 31.2879 43.4763 31.673 43.89C32.5127 44.789 35.3716 47.8201 36.881 49.0939C37.0734 49.2556 37.3069 49.3355 37.5404 49.3355C37.8311 49.3355 38.122 49.2106 38.3248 48.971C38.6893 48.5368 38.634 47.8917 38.2019 47.5272Z" fill="#2E61AD"/>
<path d="M22.8855 21.9687C21.1304 20.3057 14.112 19.767 12.0027 19.6421C11.7119 19.6278 11.4436 19.724 11.2388 19.9186C11.034 20.1111 10.9172 20.3814 10.9172 20.664V39.0956C10.9172 39.6609 11.376 40.1197 11.9412 40.1197H18.0851C18.5275 40.1197 18.9207 39.835 19.0579 39.4131C19.2073 38.9543 22.736 28.1248 23.2008 22.8001C23.2275 22.4888 23.1128 22.1816 22.8855 21.9687ZM17.3376 38.0717H12.9652V21.7618C16.2563 22.0218 19.8074 22.5871 21.0976 23.2137C20.555 27.6988 18.0994 35.6674 17.3376 38.0717Z" fill="#2E61AD"/>
<path d="M59.0443 21.688C51.004 21.688 46.5435 23.7462 46.3572 23.8322C46.091 23.9571 45.8923 24.1886 45.8104 24.4692C45.7285 24.7498 45.7694 25.0508 45.923 25.3006C47.1886 27.3384 51.1514 38.6554 51.9133 41.416C52.0361 41.8604 52.4396 42.1675 52.9004 42.1675H59.0443C59.6095 42.1675 60.0683 41.7088 60.0683 41.1435V22.7119C60.0683 22.1447 59.6095 21.688 59.0443 21.688ZM58.0204 40.1196H53.6664C52.6957 36.9575 49.8285 28.7125 48.2291 25.3047C49.7916 24.7744 53.1483 23.8629 58.0204 23.7483V40.1196Z" fill="#2E61AD"/>
</svg>
