<svg width="71" height="45" viewBox="0 0 71 45" fill="none" xmlns="http://www.w3.org/2000/svg">
<path d="M56.0603 30.7385C54.6669 27.8335 49.682 23.8012 44.866 19.905C42.1798 17.7336 39.6415 15.6805 38.0233 14.0624C37.618 13.6541 37.0116 13.5239 36.4762 13.7163C35.4793 14.0772 34.8638 14.3553 34.3788 14.5712C33.6392 14.9025 33.3907 15.0149 32.3937 15.1155C31.9528 15.1598 31.5565 15.3965 31.3109 15.7633C29.2193 18.8902 27.0538 18.624 25.6072 18.1389C25.1457 17.9851 25.0629 17.7868 25.0186 17.5975C24.7079 16.2989 26.267 13.2754 28.2875 11.2548C33.0948 6.44458 35.5738 5.24049 40.8101 7.58058C46.7504 10.2371 52.7026 12.3169 52.7618 12.3376C53.5399 12.6067 54.3771 12.1985 54.6462 11.4264C54.9125 10.6542 54.5071 9.81112 53.735 9.54195C53.6758 9.52129 47.842 7.48295 42.02 4.87661C35.2366 1.84428 31.5149 3.84115 26.1988 9.16033C24.1753 11.1838 21.427 15.2781 22.137 18.2809C22.4416 19.5589 23.341 20.5056 24.6781 20.9463C28.03 22.0528 31.0888 20.9936 33.3667 17.9703C34.3075 17.8254 34.8193 17.6124 35.5884 17.2663C35.8664 17.142 36.1919 16.9971 36.6239 16.8225C38.3161 18.4111 40.5999 20.26 43.005 22.2037C47.3537 25.7211 52.2853 29.709 53.3947 32.0165C53.942 33.1554 53.3532 33.898 52.9539 34.2382C52.3681 34.7411 51.5665 34.9009 51.1316 34.5961C50.6523 34.2677 50.0282 34.247 49.5341 34.5428C49.0371 34.8386 48.759 35.3977 48.8212 35.9717C48.9217 36.9125 48.0608 37.4509 47.6881 37.6373C46.7414 38.1165 45.7533 38.0338 45.3835 37.6905C44.9693 37.306 44.3747 37.1935 43.8481 37.3888C43.3216 37.587 42.9547 38.0722 42.9014 38.6342C42.8127 39.6045 42.0938 40.5364 41.1559 40.9002C40.7033 41.0718 40.0466 41.1754 39.4579 40.6369C39.0911 40.3056 38.5822 40.1783 38.106 40.2937C37.6238 40.412 37.2362 40.7612 37.0676 41.2256C37.0115 41.3735 36.8842 41.7285 35.4997 41.7285C34.5145 41.7285 32.7424 41.0629 31.8757 40.4889C30.8374 39.8056 24.326 34.948 18.7023 30.2383C17.9125 29.5727 16.5457 28.1467 15.3387 26.8865C14.2677 25.7682 13.2886 24.7536 12.7856 24.3276C12.1555 23.7951 11.2236 23.8749 10.7 24.5022C10.1735 25.1263 10.2503 26.0612 10.8746 26.5878C11.3332 26.9754 12.2207 27.9131 13.1998 28.9337C14.5193 30.3122 15.883 31.7382 16.8002 32.5074C22.3086 37.1195 28.9294 42.0984 30.2487 42.9651C31.3374 43.681 33.6833 44.6868 35.4998 44.6868C36.9582 44.6868 38.0795 44.3525 38.8575 43.6988C39.8987 44.1041 41.0822 44.107 42.2211 43.6633C43.5672 43.1426 44.6735 42.0924 45.3007 40.8204C46.4662 41.0689 47.8005 40.8943 49.0134 40.285C50.1997 39.6874 51.0575 38.7733 51.4835 37.7052C52.661 37.7674 53.8738 37.3502 54.8767 36.4894C56.575 35.0369 57.0423 32.7768 56.0603 30.7385Z" fill="#2E61AD"/>
<path d="M29.5832 6.22864H16.2707C15.4542 6.22864 14.7915 6.89135 14.7915 7.70785C14.7915 8.52436 15.4542 9.18707 16.2707 9.18707H29.5832C30.3997 9.18707 31.0624 8.52436 31.0624 7.70785C31.0624 6.89135 30.3997 6.22864 29.5832 6.22864Z" fill="#2E61AD"/>
<path d="M60.3942 27.5908C59.9356 26.9134 59.0186 26.727 58.3412 27.1885L54.0162 30.0935C53.3388 30.5491 53.1582 31.4692 53.6139 32.1466C53.9008 32.5697 54.3683 32.8004 54.8446 32.8004C55.1257 32.8004 55.4126 32.7205 55.6671 32.549L59.9921 29.644C60.6694 29.1883 60.8498 28.2683 60.3942 27.5908Z" fill="#2E61AD"/>
<path d="M51.2115 34.6495C50.1524 33.8152 45.4161 28.9665 42.4873 25.9135C41.9223 25.3218 40.9846 25.3012 40.3958 25.8692C39.804 26.4342 39.7863 27.372 40.3514 27.9608C41.1117 28.7535 47.8182 35.7441 49.3773 36.9748C49.6464 37.1878 49.9719 37.2914 50.2914 37.2914C50.7262 37.2914 51.1611 37.0962 51.4569 36.7263C51.9629 36.0872 51.8535 35.1553 51.2115 34.6495Z" fill="#2E61AD"/>
<path d="M45.3007 37.6166C43.5286 36.1995 39.0764 31.4692 38.0705 30.3746C37.5143 29.7711 36.5824 29.7356 35.9789 30.2859C35.3783 30.839 35.337 31.7769 35.8901 32.3775C35.9434 32.4336 41.2566 38.1699 43.4516 39.9272C43.7239 40.1431 44.0522 40.2496 44.3746 40.2496C44.8066 40.2496 45.2384 40.0572 45.5313 39.6964C46.0404 39.0573 45.9368 38.1254 45.3007 37.6166Z" fill="#2E61AD"/>
<path d="M39.4137 40.5957C37.3043 38.8178 32.9882 34.2235 32.145 33.3211C31.5859 32.7236 30.6481 32.691 30.0535 33.2501C29.4559 33.8093 29.4262 34.744 29.9825 35.3417C31.1954 36.6404 35.3252 41.0188 37.5055 42.8588C37.7836 43.0925 38.1208 43.2079 38.4581 43.2079C38.8781 43.2079 39.2983 43.0275 39.5912 42.6813C40.1177 42.0541 40.0378 41.1223 39.4137 40.5957Z" fill="#2E61AD"/>
<path d="M17.2885 3.67571C14.7532 1.2735 4.615 0.495411 1.56796 0.314999C1.14793 0.294337 0.760338 0.433287 0.464551 0.714375C0.168625 0.992412 0 1.38291 0 1.79116V28.4162C0 29.2327 0.662713 29.8954 1.47921 29.8954H10.3542C10.9932 29.8954 11.5612 29.4842 11.7594 28.8748C11.9753 28.212 17.0726 12.5685 17.744 4.87675C17.7826 4.42704 17.6169 3.98329 17.2885 3.67571ZM9.27438 26.9371H2.95829V3.37687C7.71238 3.75254 12.8421 4.56904 14.7059 5.47429C13.922 11.953 10.3749 23.4639 9.27438 26.9371Z" fill="#2E61AD"/>
<path d="M69.5207 3.27036C57.9063 3.27036 51.463 6.24348 51.1938 6.36773C50.8093 6.54814 50.5222 6.88248 50.404 7.28782C50.2857 7.69315 50.3447 8.12803 50.5666 8.48886C52.3949 11.4324 58.1192 27.7802 59.2197 31.768C59.3972 32.4099 59.9801 32.8536 60.6457 32.8536H69.5207C70.3372 32.8536 70.9999 32.1909 70.9999 31.3744V4.74943C70.9999 3.93002 70.3372 3.27036 69.5207 3.27036ZM68.0416 29.8953H61.7522C60.3499 25.3276 56.2082 13.4174 53.8978 8.49482C56.155 7.72866 61.0038 6.41211 68.0416 6.24653V29.8953Z" fill="#2E61AD"/>
</svg>
