<svg width="19" height="19" viewBox="0 0 19 19" fill="none" xmlns="http://www.w3.org/2000/svg">
<g clip-path="url(#clip0)">
<path d="M13.9432 12.2649C14.8782 10.9881 15.4374 9.41985 15.4374 7.7197C15.4374 3.46373 11.9747 0.000961304 7.7187 0.000961304C3.46273 0.000961304 0 3.46373 0 7.7197C0 11.9757 3.46277 15.4384 7.71873 15.4384C9.41889 15.4384 10.9873 14.8791 12.2641 13.9441L17.3208 19.0009L19 17.3217C19 17.3216 13.9432 12.2649 13.9432 12.2649ZM7.71873 13.0634C4.77202 13.0634 2.37501 10.6664 2.37501 7.7197C2.37501 4.77298 4.77202 2.37597 7.71873 2.37597C10.6654 2.37597 13.0625 4.77298 13.0625 7.7197C13.0625 10.6664 10.6654 13.0634 7.71873 13.0634Z" fill="#2E61AD"/>
</g>
<defs>
<clipPath id="clip0">
<rect width="19" height="19" fill="white"/>
</clipPath>
</defs>
</svg>
